<?xml version="1.0" encoding="UTF-8" standalone="no"?>
<!-- Created with Inkscape (http://www.inkscape.org/) -->

<svg
   version="1.1"
   id="svg2"
   xml:space="preserve"
   width="624.51501"
   height="624.51501"
   viewBox="0 0 624.51501 624.51501"
   sodipodi:docname="clouds.svg"
   inkscape:version="1.1.1 (3bf5ae0d25, 2021-09-20)"
   xmlns:inkscape="http://www.inkscape.org/namespaces/inkscape"
   xmlns:sodipodi="http://sodipodi.sourceforge.net/DTD/sodipodi-0.dtd"
   xmlns="http://www.w3.org/2000/svg"
   xmlns:svg="http://www.w3.org/2000/svg"><defs
     id="defs6"><linearGradient
       x1="0"
       y1="0"
       x2="1"
       y2="0"
       gradientUnits="userSpaceOnUse"
       gradientTransform="matrix(0,301.02258,301.02258,0,405.35434,-0.5501378)"
       spreadMethod="pad"
       id="linearGradient28"><stop
         style="stop-opacity:1;stop-color:#212d42"
         offset="0"
         id="stop22" /><stop
         style="stop-opacity:1;stop-color:#212d42"
         offset="0.79908746"
         id="stop24" /><stop
         style="stop-opacity:1;stop-color:#161f2d"
         offset="1"
         id="stop26" /></linearGradient><clipPath
       clipPathUnits="userSpaceOnUse"
       id="clipPath38"><path
         d="M 0,300.472 H 810.709 V 0 H 0 Z"
         id="path36" /></clipPath><clipPath
       clipPathUnits="userSpaceOnUse"
       id="clipPath518"><path
         d="M 0,300.472 H 810.709 V 0 H 0 Z"
         id="path516" /></clipPath><clipPath
       clipPathUnits="userSpaceOnUse"
       id="clipPath570"><path
         d="M 42.5045,473.247 H 510.891 V 4.8605 H 42.5045 Z"
         id="path568" /></clipPath><clipPath
       clipPathUnits="userSpaceOnUse"
       id="clipPath586"><path
         d="M 68.01,447.741 H 485.385 V 30.3661 H 68.01 Z"
         id="path584" /></clipPath><clipPath
       clipPathUnits="userSpaceOnUse"
       id="clipPath602"><path
         d="m 101.776,413.976 h 357.67 V 56.3056 h -357.67 z"
         id="path600" /></clipPath><clipPath
       clipPathUnits="userSpaceOnUse"
       id="clipPath670"><path
         d="M 0,300.472 H 810.709 V 0 H 0 Z"
         id="path668" /></clipPath><clipPath
       clipPathUnits="userSpaceOnUse"
       id="clipPath714"><path
         d="M 0,300.472 H 810.709 V 0 H 0 Z"
         id="path712" /></clipPath><clipPath
       clipPathUnits="userSpaceOnUse"
       id="clipPath2051"><g
         inkscape:label="Clip"
         id="use2053"><g
           id="g1071"
           transform="translate(427.8146,239.0536)"
           style="stroke-width:0.75"><path
             d="m 0,0 c 0,-83.46 -67.657,-151.117 -151.117,-151.117 -83.46,0 -151.117,67.657 -151.117,151.117 0,83.46 67.657,151.117 151.117,151.117 C -67.657,151.117 0,83.46 0,0"
             style="fill:#274397;fill-opacity:1;fill-rule:nonzero;stroke:none;stroke-width:0.75"
             id="path1069" /></g></g></clipPath></defs><sodipodi:namedview
     id="namedview4"
     pagecolor="#505050"
     bordercolor="#ffffff"
     borderopacity="1"
     inkscape:pageshadow="0"
     inkscape:pageopacity="0"
     inkscape:pagecheckerboard="1"
     showgrid="false"
     inkscape:zoom="0.57912273"
     inkscape:cx="574.14428"
     inkscape:cy="270.23633"
     inkscape:window-width="1920"
     inkscape:window-height="1001"
     inkscape:window-x="-9"
     inkscape:window-y="141"
     inkscape:window-maximized="1"
     inkscape:current-layer="g648" /><g
     id="g648"
     inkscape:groupmode="layer"
     style="display:inline;stroke-width:0.5625"
     inkscape:label="overlayedClouds"
     sodipodi:insensitive="true"
     transform="matrix(1.3333333,0,0,-1.3333333,0,400.62933)"><g
       id="g650"
       clip-path="none"
       transform="translate(-42.5047,-172.77459)"
       style="stroke-width:0.5625"><g
         id="g656"
         transform="translate(425.7144,280.7325)"
         style="stroke-width:0.5625"><path
           d="m 0,0 c -0.65,0 -1.291,-0.053 -1.923,-0.15 h -78.169 c -0.632,0.097 -1.273,0.15 -1.923,0.15 -9.758,0 -17.668,-11.154 -17.668,-24.914 0,-13.759 7.91,-24.913 17.668,-24.913 v -0.15 h 81.197 v 0.179 c 0.271,-0.017 0.544,-0.029 0.818,-0.029 9.758,0 17.668,11.154 17.668,24.913 C 17.668,-11.154 9.758,0 0,0"
           style="fill:#ffffff;fill-opacity:1;fill-rule:nonzero;stroke:none;stroke-width:0.5625"
           id="path658" /></g><g
         id="g660"
         transform="translate(396.9973,176.1793)"
         style="stroke-width:0.5625"><path
           d="M 0,0 C -0.65,0 -1.291,-0.038 -1.923,-0.106 H -80.092 C -80.724,-0.038 -81.365,0 -82.015,0 c -9.758,0 -17.668,-7.886 -17.668,-17.615 0,-9.728 7.91,-17.614 17.668,-17.614 v -0.106 h 81.197 v 0.126 c 0.271,-0.012 0.544,-0.02 0.818,-0.02 9.758,0 17.668,7.886 17.668,17.614 C 17.668,-7.886 9.758,0 0,0"
           style="fill:#ffffff;fill-opacity:1;fill-rule:nonzero;stroke:none;stroke-width:0.5625"
           id="path662" /></g></g><path
       d="m 192.9197,102.71471 c -0.65,0 -1.291,-0.038 -1.923,-0.106 h -78.169 c -0.632,0.068 -1.273,0.106 -1.923,0.106 -9.758,0 -17.668,-7.886005 -17.668,-17.615005 0,-9.728 7.91,-17.614 17.668,-17.614 v -0.106 h 81.197 v 0.126 c 0.271,-0.012 0.544,-0.02 0.818,-0.02 9.758,0 17.668,7.886 17.668,17.614 0,9.729 -7.91,17.615005 -17.668,17.615005"
       style="display:inline;fill:#ffffff;fill-opacity:1;fill-rule:nonzero;stroke:none;stroke-width:0.5625"
       id="path638-2"
       clip-path="none" /><path
       d="m 248.7344,43.245495 c -0.435,0 -0.864,-0.025 -1.286,-0.071 h -52.281 c -0.422,0.046 -0.851,0.071 -1.286,0.071 -6.526,0 -11.816,-5.275 -11.816,-11.781 0,-6.506 5.29,-11.781 11.816,-11.781 v -0.071 h 54.306 v 0.085 c 0.181,-0.008 0.364,-0.014 0.547,-0.014 6.526,0 11.816,5.275 11.816,11.781 0,6.506 -5.29,11.781 -11.816,11.781"
       style="display:inline;fill:#ffffff;fill-opacity:1;fill-rule:nonzero;stroke:none;stroke-width:0.5625"
       id="path642-0"
       clip-path="none" /><path
       d="m 203.6403,-35.379995 c -0.65,0 -1.291,-0.038 -1.923,-0.106 h -78.169 c -0.632,0.068 -1.273,0.106 -1.923,0.106 -9.758,0 -17.668,-7.886 -17.668,-17.615 0,-9.728 7.91,-17.614 17.668,-17.614 v -0.106 h 81.197 v 0.126 c 0.271,-0.012 0.544,-0.02 0.818,-0.02 9.758,0 17.668,7.886 17.668,17.614 0,9.729 -7.91,17.615 -17.668,17.615"
       style="display:inline;fill:#ffffff;fill-opacity:1;fill-rule:nonzero;stroke:none;stroke-width:0.5625"
       id="path646-1"
       clip-path="none" /></g></svg>
