<?xml version="1.0" encoding="UTF-8" standalone="no"?>
<!-- Created with Inkscape (http://www.inkscape.org/) -->

<svg
   version="1.1"
   id="svg2"
   xml:space="preserve"
   width="624.51501"
   height="624.51501"
   viewBox="0 0 624.51501 624.51501"
   sodipodi:docname="glow.svg"
   inkscape:version="1.1.1 (3bf5ae0d25, 2021-09-20)"
   xmlns:inkscape="http://www.inkscape.org/namespaces/inkscape"
   xmlns:sodipodi="http://sodipodi.sourceforge.net/DTD/sodipodi-0.dtd"
   xmlns="http://www.w3.org/2000/svg"
   xmlns:svg="http://www.w3.org/2000/svg"><defs
     id="defs6"><linearGradient
       x1="0"
       y1="0"
       x2="1"
       y2="0"
       gradientUnits="userSpaceOnUse"
       gradientTransform="matrix(0,301.02258,301.02258,0,405.35434,-0.5501378)"
       spreadMethod="pad"
       id="linearGradient28"><stop
         style="stop-opacity:1;stop-color:#212d42"
         offset="0"
         id="stop22" /><stop
         style="stop-opacity:1;stop-color:#212d42"
         offset="0.79908746"
         id="stop24" /><stop
         style="stop-opacity:1;stop-color:#161f2d"
         offset="1"
         id="stop26" /></linearGradient><clipPath
       clipPathUnits="userSpaceOnUse"
       id="clipPath38"><path
         d="M 0,300.472 H 810.709 V 0 H 0 Z"
         id="path36" /></clipPath><clipPath
       clipPathUnits="userSpaceOnUse"
       id="clipPath518"><path
         d="M 0,300.472 H 810.709 V 0 H 0 Z"
         id="path516" /></clipPath><clipPath
       clipPathUnits="userSpaceOnUse"
       id="clipPath570"><path
         d="M 42.5045,473.247 H 510.891 V 4.8605 H 42.5045 Z"
         id="path568" /></clipPath><clipPath
       clipPathUnits="userSpaceOnUse"
       id="clipPath586"><path
         d="M 68.01,447.741 H 485.385 V 30.3661 H 68.01 Z"
         id="path584" /></clipPath><clipPath
       clipPathUnits="userSpaceOnUse"
       id="clipPath602"><path
         d="m 101.776,413.976 h 357.67 V 56.3056 h -357.67 z"
         id="path600" /></clipPath><clipPath
       clipPathUnits="userSpaceOnUse"
       id="clipPath670"><path
         d="M 0,300.472 H 810.709 V 0 H 0 Z"
         id="path668" /></clipPath><clipPath
       clipPathUnits="userSpaceOnUse"
       id="clipPath714"><path
         d="M 0,300.472 H 810.709 V 0 H 0 Z"
         id="path712" /></clipPath><clipPath
       clipPathUnits="userSpaceOnUse"
       id="clipPath2051"><g
         inkscape:label="Clip"
         id="use2053"><g
           id="g1188"
           transform="translate(427.8146,239.0536)"
           style="stroke-width:0.75"><path
             d="m 0,0 c 0,-83.46 -67.657,-151.117 -151.117,-151.117 -83.46,0 -151.117,67.657 -151.117,151.117 0,83.46 67.657,151.117 151.117,151.117 C -67.657,151.117 0,83.46 0,0"
             style="fill:#274397;fill-opacity:1;fill-rule:nonzero;stroke:none;stroke-width:0.75"
             id="path1186" /></g></g></clipPath></defs><sodipodi:namedview
     id="namedview4"
     pagecolor="#505050"
     bordercolor="#ffffff"
     borderopacity="1"
     inkscape:pageshadow="0"
     inkscape:pageopacity="0"
     inkscape:pagecheckerboard="1"
     showgrid="false"
     inkscape:zoom="0.57912273"
     inkscape:cx="574.14428"
     inkscape:cy="546.51628"
     inkscape:window-width="1920"
     inkscape:window-height="1001"
     inkscape:window-x="-9"
     inkscape:window-y="141"
     inkscape:window-maximized="1"
     inkscape:current-layer="g556" /><g
     id="g556"
     inkscape:groupmode="layer"
     style="display:inline;stroke-width:0.5625"
     inkscape:label="glow"
     transform="matrix(1.3333333,0,0,-1.3333333,0,400.62933)"><g
       id="g558"
       clip-path="none"
       transform="translate(-42.5047,-172.77459)"
       style="stroke-width:0.5625"><g
         id="g564"
         style="stroke-width:0.5625"><g
           id="g566"
           style="stroke-width:0.5625" /><g
           id="g578"
           style="stroke-width:0.5625"><g
             clip-path="url(#clipPath570)"
             opacity="0.0500031"
             id="g576"
             style="stroke-width:0.421875"><g
               transform="translate(510.8907,239.0536)"
               id="g574"
               style="stroke-width:0.5625"><path
                 d="m 0,0 c 0,-129.341 -104.852,-234.193 -234.193,-234.193 -129.341,0 -234.193,104.852 -234.193,234.193 0,129.341 104.852,234.193 234.193,234.193 C -104.852,234.193 0,129.341 0,0"
                 style="fill:#28aae1;fill-opacity:1;fill-rule:nonzero;stroke:none;stroke-width:0.5625"
                 id="path572" /></g></g></g></g><g
         id="g580"
         style="stroke-width:0.5625"><g
           id="g582"
           style="stroke-width:0.5625" /><g
           id="g594"
           style="stroke-width:0.5625"><g
             clip-path="url(#clipPath586)"
             opacity="0.0500031"
             id="g592"
             style="stroke-width:0.421875"><g
               transform="translate(485.3851,239.0536)"
               id="g590"
               style="stroke-width:0.5625"><path
                 d="m 0,0 c 0,-115.255 -93.433,-208.688 -208.688,-208.688 -115.255,0 -208.687,93.433 -208.687,208.688 0,115.255 93.432,208.688 208.687,208.688 C -93.433,208.688 0,115.255 0,0"
                 style="fill:#28aae1;fill-opacity:1;fill-rule:nonzero;stroke:none;stroke-width:0.5625"
                 id="path588"
                 mask="none" /></g></g></g></g><g
         id="g596"
         style="stroke-width:0.5625"><g
           id="g598"
           style="stroke-width:0.5625" /><g
           id="g610"
           style="stroke-width:0.5625"><g
             clip-path="url(#clipPath602)"
             opacity="0.0500031"
             id="g608"
             style="stroke-width:0.421875"><g
               transform="translate(459.4456,235.1406)"
               id="g606"
               style="stroke-width:0.5625"><path
                 d="m 0,0 c 0,-98.768 -80.067,-178.835 -178.835,-178.835 -98.768,0 -178.835,80.067 -178.835,178.835 0,98.768 80.067,178.835 178.835,178.835 C -80.067,178.835 0,98.768 0,0"
                 style="fill:#28aae1;fill-opacity:1;fill-rule:nonzero;stroke:none;stroke-width:0.5625"
                 id="path604" /></g></g></g></g></g></g></svg>
