<?xml version="1.0" encoding="UTF-8" standalone="no"?>
<!-- Created with Inkscape (http://www.inkscape.org/) -->

<svg
   version="1.1"
   id="svg2"
   xml:space="preserve"
   width="662.67731"
   height="876.01068"
   viewBox="0 0 662.67731 876.01068"
   sodipodi:docname="ot4Mod.svg"
   inkscape:version="1.1.1 (3bf5ae0d25, 2021-09-20)"
   xmlns:inkscape="http://www.inkscape.org/namespaces/inkscape"
   xmlns:sodipodi="http://sodipodi.sourceforge.net/DTD/sodipodi-0.dtd"
   xmlns="http://www.w3.org/2000/svg"
   xmlns:svg="http://www.w3.org/2000/svg"><defs
     id="defs6"><clipPath
       clipPathUnits="userSpaceOnUse"
       id="clipPath16"><path
         d="M 55.019,657.008 33.709,85.304 497.008,68.034 v 588.974 z"
         id="path14" /></clipPath><clipPath
       clipPathUnits="userSpaceOnUse"
       id="clipPath36"><path
         d="M 0,657.008 H 497.008 V 0 H 0 Z"
         id="path34" /></clipPath><clipPath
       clipPathUnits="userSpaceOnUse"
       id="clipPath64"><path
         d="M 0,657.008 H 497.008 V 0 H 0 Z"
         id="path62" /></clipPath><clipPath
       clipPathUnits="userSpaceOnUse"
       id="clipPath74"><path
         d="M 0,657.008 H 497.008 V 0 H 0 Z"
         id="path72" /></clipPath><clipPath
       clipPathUnits="userSpaceOnUse"
       id="clipPath90"><path
         d="M 0,657.008 H 497.008 V 0 H 0 Z"
         id="path88" /></clipPath><clipPath
       clipPathUnits="userSpaceOnUse"
       id="clipPath110"><path
         d="M 0,657.008 H 497.008 V 0 H 0 Z"
         id="path108" /></clipPath><clipPath
       clipPathUnits="userSpaceOnUse"
       id="clipPath134"><path
         d="M 0,657.008 H 497.008 V 0 H 0 Z"
         id="path132" /></clipPath><clipPath
       clipPathUnits="userSpaceOnUse"
       id="clipPath158"><path
         d="M 0,657.008 H 497.008 V 0 H 0 Z"
         id="path156" /></clipPath><clipPath
       clipPathUnits="userSpaceOnUse"
       id="clipPath182"><path
         d="M 0,657.008 H 497.008 V 0 H 0 Z"
         id="path180" /></clipPath><clipPath
       clipPathUnits="userSpaceOnUse"
       id="clipPath202"><path
         d="M 0,657.008 H 497.008 V 0 H 0 Z"
         id="path200" /></clipPath><clipPath
       clipPathUnits="userSpaceOnUse"
       id="clipPath218"><path
         d="M 0,657.008 H 497.008 V 0 H 0 Z"
         id="path216" /></clipPath></defs><sodipodi:namedview
     id="namedview4"
     pagecolor="#505050"
     bordercolor="#ffffff"
     borderopacity="1"
     inkscape:pageshadow="0"
     inkscape:pageopacity="0"
     inkscape:pagecheckerboard="1"
     showgrid="false"
     inkscape:zoom="0.65543802"
     inkscape:cx="276.91405"
     inkscape:cy="546.96247"
     inkscape:window-width="1920"
     inkscape:window-height="1001"
     inkscape:window-x="-9"
     inkscape:window-y="-9"
     inkscape:window-maximized="1"
     inkscape:current-layer="g8" /><g
     id="g8"
     inkscape:groupmode="layer"
     inkscape:label="Ot4"
     transform="matrix(1.3333333,0,0,-1.3333333,0,876.01067)"><g
       id="g30"><g
         id="g32"
         clip-path="url(#clipPath36)"><g
           id="g38"
           transform="translate(248.6529,191.1635)"><path
             d="m 0,0 c 14.523,-0.84 25.913,1.71 32.936,3.851 7.957,2.426 30.504,9.3 45.033,31.106 6.438,9.663 9.148,19.025 10.402,25.027 6.695,1.231 16.993,3.952 28.055,10.505 11.263,6.673 18.679,14.572 22.978,19.915 8.583,-17.248 14.424,-32.226 18.383,-43.659 4.092,-11.816 6.153,-19.784 3.064,-28.341 -2.613,-7.239 -7.834,-11.912 -11.489,-14.553 5.091,-0.599 12.173,-1.998 20,-5.447 6.774,-2.984 11.982,-6.568 15.659,-9.532 8.17,-0.227 16.341,-0.454 24.511,-0.681 l 27.915,-7.489 c 10.124,-6.112 20.249,-12.223 30.373,-18.335 v -179.13 H -0.177 C -0.118,-144.509 -0.059,-72.254 0,0"
             style="fill:#3d3d40;fill-opacity:1;fill-rule:nonzero;stroke:none"
             id="path40" /></g><g
           id="g42"
           transform="translate(248.5382,191.1635)"><path
             d="m 0,0 c -14.523,-0.84 -25.913,1.71 -32.936,3.851 -7.957,2.426 -30.504,9.3 -45.033,31.106 -6.438,9.663 -9.148,19.025 -10.402,25.027 -6.695,1.231 -16.993,3.952 -28.055,10.505 -11.263,6.673 -18.679,14.572 -22.978,19.915 -8.583,-17.248 -14.424,-32.226 -18.383,-43.659 -4.092,-11.816 -6.153,-19.784 -3.064,-28.341 2.613,-7.239 7.834,-11.912 11.489,-14.553 -5.091,-0.599 -12.173,-1.998 -20,-5.447 -6.774,-2.984 -11.982,-6.568 -15.659,-9.532 -8.17,-0.227 -16.341,-0.454 -24.511,-0.681 l -27.915,-7.489 c -10.124,-6.112 -20.249,-12.223 -30.373,-18.335 v -179.13 H 0.177 C 0.118,-144.509 0.059,-72.254 0,0"
             style="fill:#4f4d53;fill-opacity:1;fill-rule:nonzero;stroke:none"
             id="path44" /></g><g
           id="g46"
           transform="translate(337.0236,251.1478)"><path
             d="m 0,0 c 7.127,1.313 18.42,4.321 30.327,11.887 9.83,6.245 16.532,13.343 20.707,18.533 -5.559,2.46 -12.41,4.996 -20.426,6.957 -8.36,2.046 -15.897,2.955 -22.151,3.31 C 7.241,33.007 6.07,26.727 5.143,22.07 4.203,17.344 3.44,13.912 2.945,11.749 2.01,7.663 1.276,4.806 0.959,3.585 0.582,2.135 0.25,0.911 0,0"
             style="fill:#4f4d53;fill-opacity:1;fill-rule:nonzero;stroke:none"
             id="path48" /></g><g
           id="g50"
           transform="translate(160.1675,251.1478)"><path
             d="m 0,0 c -7.127,1.313 -18.42,4.321 -30.327,11.887 -9.83,6.245 -16.532,13.343 -20.707,18.533 5.559,2.46 12.41,4.996 20.426,6.957 8.36,2.046 15.897,2.955 22.151,3.31 1.216,-7.68 2.387,-13.96 3.314,-18.617 0.94,-4.726 1.703,-8.158 2.198,-10.321 C -2.01,7.663 -1.276,4.806 -0.959,3.585 -0.582,2.135 -0.25,0.911 0,0"
             style="fill:#3d3d40;fill-opacity:1;fill-rule:nonzero;stroke:none"
             id="path52" /></g><g
           id="g54"
           transform="translate(248.6529,-25.5995)"><path
             d="M 0,0 V 216.763"
             style="fill:none;stroke:#e7e8e9;stroke-width:16;stroke-linecap:butt;stroke-linejoin:miter;stroke-miterlimit:10;stroke-dasharray:none;stroke-opacity:1"
             id="path56" /></g></g></g><g
       id="g68"><g
         id="g70"
         clip-path="url(#clipPath74)"><g
           id="g76"
           transform="translate(151.121,317.4614)"><path
             d="m 0,0 c 0,7.405 -4.327,25.832 -4.327,33.237 -2.663,-0.856 -5.984,-1.962 -9.785,-3.323 -3.929,-1.406 -9.008,-3.312 -14.865,-5.747 -3.124,-1.3 -7.3,-3.095 -12.153,-5.357 -2.027,-0.944 -5.035,-2.372 -8.649,-4.19 -2.618,-1.317 -4.937,-2.529 -6.902,-3.577 C -39.229,11.035 -17.451,0.007 0,0"
             style="fill:#3d3d40;fill-opacity:1;fill-rule:nonzero;stroke:none"
             id="path78" /></g><g
           id="g80"
           transform="translate(345.8869,317.4614)"><path
             d="m 0,0 c 0,7.405 4.327,25.832 4.327,33.237 2.663,-0.856 5.984,-1.962 9.785,-3.323 3.929,-1.406 9.008,-3.312 14.865,-5.747 3.124,-1.3 7.3,-3.095 12.153,-5.357 2.027,-0.944 5.035,-2.372 8.649,-4.19 2.618,-1.317 4.937,-2.529 6.902,-3.577 C 39.229,11.035 17.451,0.007 0,0"
             style="fill:#4f4d53;fill-opacity:1;fill-rule:nonzero;stroke:none"
             id="path82" /></g></g></g><g
       id="g84"><g
         id="g86"
         clip-path="url(#clipPath90)"><g
           id="g92"
           transform="translate(248.5039,190.8656)"><path
             d="m 0,0 h 10.872 c 35.234,0 56.179,18.842 64.085,29.106 0.001,0 0.911,1.183 1.873,2.554 17.456,24.885 24.88,105.957 24.88,105.957 0,0.002 -40.041,1.244 -101.71,0.021 z"
             style="fill:#f1c17c;fill-opacity:1;fill-rule:nonzero;stroke:none"
             id="path94" /></g><g
           id="g96"
           transform="translate(248.5039,190.8656)"><path
             d="m 0,0 h -10.872 c -35.234,0 -56.179,18.842 -64.085,29.106 -0.001,0 -0.911,1.183 -1.873,2.554 -17.456,24.885 -24.88,105.957 -24.88,105.957 0,0.002 40.041,1.244 101.71,0.021 z"
             style="fill:#ffdbac;fill-opacity:1;fill-rule:nonzero;stroke:none"
             id="path98" /></g></g></g><path
       d="M 350.214,457.546 H 248.504 V 328.482 h 101.71 z"
       style="fill:#c68641;fill-opacity:1;fill-rule:nonzero;stroke:none"
       id="path100" /><path
       d="m 146.794,457.546 h 101.71 V 328.482 h -101.71 z"
       style="fill:#dfac69;fill-opacity:1;fill-rule:nonzero;stroke:none"
       id="path102" /><g
       id="g104"><g
         id="g106"
         clip-path="url(#clipPath110)"><g
           id="g112"
           transform="translate(248.5039,305.3763)"><path
             d="m 0,0 c 20.816,-9.702 41.631,-19.404 62.447,-29.106 v -24.516 l 31.58,23.312 C 94.194,-38.753 93.369,-56.623 82.617,-75.064 80.298,-79.041 74.766,-87.763 65.511,-95.745 40.659,-117.175 8.809,-116.039 0,-115.426 v 36.767 c 6.979,-3.405 14.106,-6.788 21.085,-10.192 8.681,14.298 17.362,28.596 26.043,42.894 v 7.533 C 31.418,-31.659 15.709,-24.893 0,-18.128 Z"
             style="fill:#c49a6c;fill-opacity:1;fill-rule:nonzero;stroke:none"
             id="path114" /></g><g
           id="g116"
           transform="translate(248.5039,305.3763)"><path
             d="m 0,0 c -20.816,-9.702 -41.631,-19.404 -62.447,-29.106 v -24.516 l -31.58,23.312 c -0.167,-8.443 0.658,-26.313 11.41,-44.754 2.319,-3.977 7.851,-12.699 17.106,-20.681 24.852,-21.43 56.702,-20.294 65.511,-19.681 v 36.767 c -6.979,-3.405 -14.106,-6.788 -21.085,-10.192 -8.681,14.298 -17.362,28.596 -26.043,42.894 v 7.533 c 15.71,6.765 31.419,13.531 47.128,20.296 z"
             style="fill:#c49a6c;fill-opacity:1;fill-rule:nonzero;stroke:none"
             id="path118" /></g><g
           id="g120"
           transform="translate(248.5039,252.2699)"><path
             d="M 0,0 H 13.936 V -6.165 C 13.162,-7.293 11.663,-9.145 9.17,-10.553 5.219,-12.786 1.359,-12.441 0,-12.255 Z"
             style="fill:#c49a6c;fill-opacity:1;fill-rule:nonzero;stroke:none"
             id="path122" /></g><g
           id="g124"
           transform="translate(248.5039,252.2699)"><path
             d="m 0,0 h -13.936 v -6.165 c 0.774,-1.128 2.273,-2.98 4.766,-4.388 3.951,-2.233 7.811,-1.888 9.17,-1.702 z"
             style="fill:#c49a6c;fill-opacity:1;fill-rule:nonzero;stroke:none"
             id="path126" /></g></g></g><g
       id="g152"><g
         id="g154"
         clip-path="url(#clipPath158)"><g
           id="g160"
           transform="translate(265.8906,336.3245)"><path
             d="M 0,0 C -6.595,2.226 -13.083,2.021 -17.387,-0.105 -21.691,2.021 -28.179,2.226 -34.773,0 -44.879,-3.41 -51.374,-11.204 -49.28,-17.408 c 2.093,-6.204 11.983,-8.469 22.089,-5.059 3.907,1.319 7.264,3.296 9.804,5.58 2.54,-2.284 5.898,-4.261 9.805,-5.58 10.106,-3.41 19.995,-1.145 22.089,5.059 C 16.601,-11.204 10.106,-3.41 0,0"
             style="fill:#e46eaa;fill-opacity:1;fill-rule:nonzero;stroke:none"
             id="path162" /></g><g
           id="g164"
           transform="translate(233.5883,322.3086)"><path
             d="m 0,0 c -3.518,-1.187 -5.779,-3.901 -5.051,-6.061 0.729,-2.16 4.172,-2.948 7.691,-1.761 3.518,1.187 5.779,3.901 5.05,6.061 C 6.961,0.399 3.518,1.187 0,0"
             style="fill:#000000;fill-opacity:1;fill-rule:nonzero;stroke:none"
             id="path166" /></g><g
           id="g168"
           transform="translate(263.4195,322.3086)"><path
             d="m 0,0 c -3.518,1.187 -6.961,0.399 -7.69,-1.761 -0.729,-2.16 1.532,-4.874 5.05,-6.061 3.519,-1.187 6.962,-0.399 7.691,1.761 C 5.779,-3.901 3.518,-1.187 0,0"
             style="fill:#000000;fill-opacity:1;fill-rule:nonzero;stroke:none"
             id="path170" /></g><g
           id="g172"
           transform="translate(230.3763,408.0146)"><path
             d="m 0,0 v -74.681 c 0,-11.633 8.34,-21.064 18.628,-21.064 10.287,0 18.627,9.431 18.627,21.064 l 0,74.681 z"
             style="fill:#ec008c;fill-opacity:1;fill-rule:nonzero;stroke:none"
             id="path174" /></g></g></g><g
       id="g176"><g
         id="g178"
         clip-path="url(#clipPath182)"><g
           id="g184"
           transform="translate(259.8231,323.4401)"><path
             d="m 0,0 c 0,-2.785 -3.415,-5.043 -7.628,-5.043 -4.212,0 -7.627,2.258 -7.627,5.043 0,2.785 3.415,5.043 7.627,5.043 C -3.415,5.043 0,2.785 0,0"
             style="fill:#e16aa8;fill-opacity:1;fill-rule:nonzero;stroke:none"
             id="path186" /></g><g
           id="g188"
           transform="translate(266.4614,207.3339)"><path
             d="m 0,0 c 0,-4.072 -6.387,-7.372 -14.266,-7.372 -7.879,0 -14.266,3.3 -14.266,7.372 0,4.072 6.387,7.372 14.266,7.372 C -6.387,7.372 0,4.072 0,0"
             style="fill:#edcaa7;fill-opacity:1;fill-rule:nonzero;stroke:none"
             id="path190" /></g><g
           id="g192"
           transform="translate(258.6667,259.9539)"><path
             d="m 0,0 c 0,-1.847 -2.897,-3.344 -6.471,-3.344 -3.574,0 -6.472,1.497 -6.472,3.344 0,1.847 2.898,3.344 6.472,3.344 C -2.897,3.344 0,1.847 0,0"
             style="fill:#ea94bf;fill-opacity:1;fill-rule:nonzero;stroke:none"
             id="path194" /></g></g></g><g
       id="g196"><g
         id="g198"
         clip-path="url(#clipPath202)"><g
           id="g204"
           transform="translate(162.2273,406.0359)"><path
             d="M 0,0 C -2.648,-30.213 15.63,-52.498 30.936,-53.511 47.012,-54.575 69.564,-32.819 68.149,0 Z"
             style="fill:#d69055;fill-opacity:1;fill-rule:nonzero;stroke:none"
             id="path206" /></g><g
           id="g208"
           transform="translate(334.7805,406.0359)"><path
             d="M 0,0 C 2.648,-30.213 -15.63,-52.498 -30.936,-53.511 -47.012,-54.575 -69.564,-32.819 -68.149,0 Z"
             style="fill:#d5935b;fill-opacity:1;fill-rule:nonzero;stroke:none"
             id="path210" /></g></g></g><g
       id="g212"><g
         id="g214"
         clip-path="url(#clipPath218)"><g
           id="g220"
           transform="translate(354.0038,349.4534)"><path
             d="M 0,0 V 36.604 H -105.489 -105.511 -211 V 0 c -0.527,-13.745 -0.337,-34.154 3.734,-58.375 4.689,-27.893 12.488,-47.532 28.085,-86.808 8.514,-21.439 18.48,-46.323 35.234,-78.128 13.662,-25.934 27.116,-47.51 38.446,-64.339 v -0.003 c -1.49,-2.086 -5.115,-7.745 -5.328,-15.842 -0.237,-9.005 3.894,-15.337 5.329,-17.348 1.435,2.011 5.566,8.343 5.329,17.348 -0.213,8.097 -3.837,13.756 -5.328,15.842 v 0.003 c 11.33,16.829 24.785,38.405 38.446,64.339 16.754,31.805 26.72,56.689 35.234,78.128 15.598,39.276 23.397,58.915 28.085,86.808 C 0.337,-34.154 0.528,-13.745 0,0 Z"
             style="fill:none;stroke:#231f20;stroke-width:4;stroke-linecap:butt;stroke-linejoin:miter;stroke-miterlimit:10;stroke-dasharray:none;stroke-opacity:1"
             id="path222" /></g><g
           id="g224"
           transform="translate(94.4401,328.5039)"><path
             d="m 0,0 c 21.627,11.548 52.535,24.869 91.404,32.021 23.652,4.353 44.931,5.442 62.66,5.107 v 185.617 c -10.081,1.308 -36.45,3.288 -61.894,-12.256 C 60.774,191.309 43.453,153.186 46.979,112.447 31.319,74.965 15.66,37.482 0,0"
             style="fill:#4f4d53;fill-opacity:1;fill-rule:nonzero;stroke:none"
             id="path226" /></g><g
           id="g228"
           transform="translate(402.5678,328.5039)"><path
             d="m 0,0 c -21.627,11.548 -52.535,24.869 -91.404,32.021 -23.652,4.353 -44.931,5.442 -62.66,5.107 v 185.617 c 10.081,1.308 36.45,3.288 61.894,-12.256 31.396,-19.18 48.717,-57.303 45.191,-98.042 z"
             style="fill:#3d3d40;fill-opacity:1;fill-rule:nonzero;stroke:none"
             id="path230" /></g></g></g></g><path
     d="m 331.33853,518.54441 -42.35467,-5.3e-4 c 4.83334,8.096 10.53467,11.69786 13.61734,13.27653 7.97333,4.08533 17.23866,4.26933 25.12666,4.42667 1.49867,0.0293 2.74534,0.0173 3.61067,0 0.86533,0.0173 2.112,0.0293 3.61067,0 7.888,-0.15734 17.15333,-0.34134 25.12666,-4.42667 3.08267,-1.57867 8.784,-5.18 13.61734,-13.276 z"
     style="fill:#e36eaa;fill-opacity:1;fill-rule:nonzero;stroke:none;stroke-width:1.33333"
     id="path138-4"
     sodipodi:nodetypes="ccccccccc" /><path
     d="m 346.43079,520.53881 c 0,2.256 -6.75733,4.08533 -15.092,4.08533 -8.336,0 -15.092,-1.82933 -15.092,-4.08533 0,-2.256 6.756,-4.08533 15.092,-4.08533 8.33467,0 15.092,1.82933 15.092,4.08533"
     style="fill:#221f20;fill-opacity:1;fill-rule:nonzero;stroke:none;stroke-width:1.33333"
     id="path142-0" /><path
     d="m 344.98386,503.73588 c -4.548,2.572 -9.09733,5.144 -13.64533,7.716 -4.548,-2.572 -9.09734,-5.144 -13.64534,-7.716 -9.56933,4.936 -19.14,9.872 -28.70933,14.808 l 42.73609,4.00496 41.97324,-4.00496 c -9.56933,-4.936 -19.14,-9.872 -28.70933,-14.808"
     style="fill:#ea078c;fill-opacity:1;fill-rule:nonzero;stroke:none;stroke-width:1.33333"
     id="path146-0"
     sodipodi:nodetypes="ccccccc" /><path
     d="m 282.33157,516.49879 c 32.50837,6.8547 65.32606,7.52328 98.55333,0"
     style="fill:none;stroke:#231f20;stroke-width:2.66667;stroke-linecap:butt;stroke-linejoin:miter;stroke-miterlimit:10;stroke-dasharray:none;stroke-opacity:1"
     id="path150-7"
     sodipodi:nodetypes="cc" /><path
     d="m 345.02377,530.75402 c 0,2.46267 -3.86266,4.45867 -8.628,4.45867 -4.76533,0 -8.62933,-1.996 -8.62933,-4.45867 0,-2.46267 3.864,-4.45867 8.62933,-4.45867 4.76534,0 8.628,1.996 8.628,4.45867"
     style="fill:#ea94bf;fill-opacity:1;fill-rule:nonzero;stroke:none;stroke-width:1.33333"
     id="path194-2" /></svg>
