<?xml version="1.0" encoding="UTF-8" standalone="no"?>
<!-- Created with Inkscape (http://www.inkscape.org/) -->

<svg
   version="1.1"
   id="svg2"
   xml:space="preserve"
   width="1080.9453"
   height="400.62933"
   viewBox="0 0 1080.9453 400.62933"
   sodipodi:docname="earth.svg"
   inkscape:version="1.1.1 (3bf5ae0d25, 2021-09-20)"
   xmlns:inkscape="http://www.inkscape.org/namespaces/inkscape"
   xmlns:sodipodi="http://sodipodi.sourceforge.net/DTD/sodipodi-0.dtd"
   xmlns="http://www.w3.org/2000/svg"
   xmlns:svg="http://www.w3.org/2000/svg"><defs
     id="defs6"><linearGradient
       x1="0"
       y1="0"
       x2="1"
       y2="0"
       gradientUnits="userSpaceOnUse"
       gradientTransform="matrix(0,301.02258,301.02258,0,405.35434,-0.5501378)"
       spreadMethod="pad"
       id="linearGradient28"><stop
         style="stop-opacity:1;stop-color:#212d42"
         offset="0"
         id="stop22" /><stop
         style="stop-opacity:1;stop-color:#212d42"
         offset="0.79908746"
         id="stop24" /><stop
         style="stop-opacity:1;stop-color:#161f2d"
         offset="1"
         id="stop26" /></linearGradient><clipPath
       clipPathUnits="userSpaceOnUse"
       id="clipPath38"><path
         d="M 0,300.472 H 810.709 V 0 H 0 Z"
         id="path36" /></clipPath><clipPath
       clipPathUnits="userSpaceOnUse"
       id="clipPath518"><path
         d="M 0,300.472 H 810.709 V 0 H 0 Z"
         id="path516" /></clipPath><clipPath
       clipPathUnits="userSpaceOnUse"
       id="clipPath562"><path
         d="M 0,300.472 H 810.709 V 0 H 0 Z"
         id="path560" /></clipPath><clipPath
       clipPathUnits="userSpaceOnUse"
       id="clipPath570"><path
         d="M 42.5045,473.247 H 510.891 V 4.8605 H 42.5045 Z"
         id="path568" /></clipPath><clipPath
       clipPathUnits="userSpaceOnUse"
       id="clipPath586"><path
         d="M 68.01,447.741 H 485.385 V 30.3661 H 68.01 Z"
         id="path584" /></clipPath><clipPath
       clipPathUnits="userSpaceOnUse"
       id="clipPath602"><path
         d="m 101.776,413.976 h 357.67 V 56.3056 h -357.67 z"
         id="path600" /></clipPath><clipPath
       clipPathUnits="userSpaceOnUse"
       id="clipPath618"><path
         d="m 138.584,300.472 c -8.358,-18.766 -13.003,-39.55 -13.003,-61.419 v 0 c 0,-83.459 67.657,-151.117 151.117,-151.117 v 0 c 83.46,0 151.117,67.658 151.117,151.117 v 0 c 0,21.869 -4.646,42.653 -13.003,61.419 v 0 z"
         id="path616" /></clipPath><clipPath
       clipPathUnits="userSpaceOnUse"
       id="clipPath654"><path
         d="M 0,300.472 H 810.709 V 0 H 0 Z"
         id="path652" /></clipPath><clipPath
       clipPathUnits="userSpaceOnUse"
       id="clipPath670"><path
         d="M 0,300.472 H 810.709 V 0 H 0 Z"
         id="path668" /></clipPath><clipPath
       clipPathUnits="userSpaceOnUse"
       id="clipPath714"><path
         d="M 0,300.472 H 810.709 V 0 H 0 Z"
         id="path712" /></clipPath></defs><sodipodi:namedview
     id="namedview4"
     pagecolor="#505050"
     bordercolor="#ffffff"
     borderopacity="1"
     inkscape:pageshadow="0"
     inkscape:pageopacity="0"
     inkscape:pagecheckerboard="1"
     showgrid="false"
     inkscape:zoom="0.57912273"
     inkscape:cx="574.14428"
     inkscape:cy="270.23633"
     inkscape:window-width="1920"
     inkscape:window-height="1001"
     inkscape:window-x="-9"
     inkscape:window-y="141"
     inkscape:window-maximized="1"
     inkscape:current-layer="g612" /><g
     id="g8"
     inkscape:label="Ot5"
     transform="matrix(1.3333333,0,0,-1.3333333,0,400.62933)"
     inkscape:groupmode="layer"><g
       inkscape:groupmode="layer"
       id="layer1"
       inkscape:label="earth"
       style="display:inline"><g
         id="g556"
         inkscape:groupmode="layer"
         style="display:inline"
         inkscape:label="glow"><g
           id="g558"
           clip-path="url(#clipPath562)"><g
             id="g564"><g
               id="g566" /><g
               id="g578"><g
                 clip-path="url(#clipPath570)"
                 opacity="0.0500031"
                 id="g576"><g
                   transform="translate(510.8907,239.0536)"
                   id="g574"><path
                     d="m 0,0 c 0,-129.341 -104.852,-234.193 -234.193,-234.193 -129.341,0 -234.193,104.852 -234.193,234.193 0,129.341 104.852,234.193 234.193,234.193 C -104.852,234.193 0,129.341 0,0"
                     style="fill:#28aae1;fill-opacity:1;fill-rule:nonzero;stroke:none"
                     id="path572" /></g></g></g></g><g
             id="g580"><g
               id="g582" /><g
               id="g594"><g
                 clip-path="url(#clipPath586)"
                 opacity="0.0500031"
                 id="g592"><g
                   transform="translate(485.3851,239.0536)"
                   id="g590"><path
                     d="m 0,0 c 0,-115.255 -93.433,-208.688 -208.688,-208.688 -115.255,0 -208.687,93.433 -208.687,208.688 0,115.255 93.432,208.688 208.687,208.688 C -93.433,208.688 0,115.255 0,0"
                     style="fill:#28aae1;fill-opacity:1;fill-rule:nonzero;stroke:none"
                     id="path588"
                     mask="none" /></g></g></g></g><g
             id="g596"><g
               id="g598" /><g
               id="g610"><g
                 clip-path="url(#clipPath602)"
                 opacity="0.0500031"
                 id="g608"><g
                   transform="translate(459.4456,235.1406)"
                   id="g606"><path
                     d="m 0,0 c 0,-98.768 -80.067,-178.835 -178.835,-178.835 -98.768,0 -178.835,80.067 -178.835,178.835 0,98.768 80.067,178.835 178.835,178.835 C -80.067,178.835 0,98.768 0,0"
                     style="fill:#28aae1;fill-opacity:1;fill-rule:nonzero;stroke:none"
                     id="path604" /></g></g></g></g></g></g><g
         id="g612"
         inkscape:groupmode="layer"
         style="display:inline"
         inkscape:label="earth"><g
           id="g614"
           clip-path="url(#clipPath618)"><g
             id="g620"
             transform="translate(427.8146,239.0536)"><path
               d="m 0,0 c 0,-83.46 -67.657,-151.117 -151.117,-151.117 -83.46,0 -151.117,67.657 -151.117,151.117 0,83.46 67.657,151.117 151.117,151.117 C -67.657,151.117 0,83.46 0,0"
               style="fill:#274397;fill-opacity:1;fill-rule:nonzero;stroke:none"
               id="path622" /></g><g
             id="g624"
             transform="translate(497.6548,257.6957)"><path
               d="m 0,0 c 0,-42.186 -54.747,-76.384 -122.281,-76.384 -67.535,0 -122.282,34.198 -122.282,76.384 0,42.186 54.747,76.384 122.282,76.384 C -54.747,76.384 0,42.186 0,0"
               style="fill:#04af87;fill-opacity:1;fill-rule:nonzero;stroke:none"
               id="path626" /></g><g
             id="g628"
             transform="translate(443.382,164.4323)"><path
               d="m 0,0 c 0,-18.854 -24.468,-34.137 -54.65,-34.137 -30.182,0 -54.649,15.283 -54.649,34.137 0,18.854 24.467,34.137 54.649,34.137 C -24.468,34.137 0,18.854 0,0"
               style="fill:#04af87;fill-opacity:1;fill-rule:nonzero;stroke:none"
               id="path630" /></g><g
             id="g632"
             transform="translate(271.6482,176.1793)"><path
               d="m 0,0 c 0,-33.726 -36.366,-61.067 -81.226,-61.067 -44.859,0 -81.225,27.341 -81.225,61.067 0,33.726 36.366,61.067 81.225,61.067 C -36.366,61.067 0,33.726 0,0"
               style="fill:#b3998a;fill-opacity:1;fill-rule:nonzero;stroke:none"
               id="path634" /></g><g
             id="g636"
             transform="translate(235.4244,275.3633)" /><g
             id="g640"
             transform="translate(291.2391,215.8941)" /><g
             id="g644"
             transform="translate(246.145,137.2686)" /></g></g><g
         id="g648"
         inkscape:groupmode="layer"
         style="display:inline"
         inkscape:label="overlayedClouds"><g
           id="g650"
           clip-path="url(#clipPath654)"><g
             id="g656"
             transform="translate(425.7144,280.7325)"><path
               d="m 0,0 c -0.65,0 -1.291,-0.053 -1.923,-0.15 h -78.169 c -0.632,0.097 -1.273,0.15 -1.923,0.15 -9.758,0 -17.668,-11.154 -17.668,-24.914 0,-13.759 7.91,-24.913 17.668,-24.913 v -0.15 h 81.197 v 0.179 c 0.271,-0.017 0.544,-0.029 0.818,-0.029 9.758,0 17.668,11.154 17.668,24.913 C 17.668,-11.154 9.758,0 0,0"
               style="fill:#ffffff;fill-opacity:1;fill-rule:nonzero;stroke:none"
               id="path658" /></g><g
             id="g660"
             transform="translate(396.9973,176.1793)"><path
               d="M 0,0 C -0.65,0 -1.291,-0.038 -1.923,-0.106 H -80.092 C -80.724,-0.038 -81.365,0 -82.015,0 c -9.758,0 -17.668,-7.886 -17.668,-17.615 0,-9.728 7.91,-17.614 17.668,-17.614 v -0.106 h 81.197 v 0.126 c 0.271,-0.012 0.544,-0.02 0.818,-0.02 9.758,0 17.668,7.886 17.668,17.614 C 17.668,-7.886 9.758,0 0,0"
               style="fill:#ffffff;fill-opacity:1;fill-rule:nonzero;stroke:none"
               id="path662" /></g></g><path
           d="m 235.4244,275.4893 c -0.65,0 -1.291,-0.038 -1.923,-0.106 h -78.169 c -0.632,0.068 -1.273,0.106 -1.923,0.106 -9.758,0 -17.668,-7.886 -17.668,-17.615 0,-9.728 7.91,-17.614 17.668,-17.614 v -0.106 h 81.197 v 0.126 c 0.271,-0.012 0.544,-0.02 0.818,-0.02 9.758,0 17.668,7.886 17.668,17.614 0,9.729 -7.91,17.615 -17.668,17.615"
           style="display:inline;fill:#ffffff;fill-opacity:1;fill-rule:nonzero;stroke:none"
           id="path638-2" /><path
           d="m 291.2391,216.02009 c -0.435,0 -0.864,-0.025 -1.286,-0.071 h -52.281 c -0.422,0.046 -0.851,0.071 -1.286,0.071 -6.526,0 -11.816,-5.275 -11.816,-11.781 0,-6.506 5.29,-11.781 11.816,-11.781 v -0.071 h 54.306 v 0.085 c 0.181,-0.008 0.364,-0.014 0.547,-0.014 6.526,0 11.816,5.275 11.816,11.781 0,6.506 -5.29,11.781 -11.816,11.781"
           style="display:inline;fill:#ffffff;fill-opacity:1;fill-rule:nonzero;stroke:none"
           id="path642-0" /><path
           d="m 246.145,137.3946 c -0.65,0 -1.291,-0.038 -1.923,-0.106 h -78.169 c -0.632,0.068 -1.273,0.106 -1.923,0.106 -9.758,0 -17.668,-7.886 -17.668,-17.615 0,-9.728 7.91,-17.614 17.668,-17.614 v -0.106 h 81.197 v 0.126 c 0.271,-0.012 0.544,-0.02 0.818,-0.02 9.758,0 17.668,7.886 17.668,17.614 0,9.729 -7.91,17.615 -17.668,17.615"
           style="display:inline;fill:#ffffff;fill-opacity:1;fill-rule:nonzero;stroke:none"
           id="path646-1" /></g></g></g></svg>
