<?xml version="1.0" encoding="UTF-8" standalone="no"?>
<!-- Created with Inkscape (http://www.inkscape.org/) -->

<svg
   version="1.1"
   id="svg2"
   xml:space="preserve"
   width="1080.9453"
   height="400.62933"
   viewBox="0 0 1080.9453 400.62933"
   sodipodi:docname="foreground.svg"
   inkscape:version="1.3.2 (091e20e, 2023-11-25, custom)"
   xmlns:inkscape="http://www.inkscape.org/namespaces/inkscape"
   xmlns:sodipodi="http://sodipodi.sourceforge.net/DTD/sodipodi-0.dtd"
   xmlns="http://www.w3.org/2000/svg"
   xmlns:svg="http://www.w3.org/2000/svg"><defs
     id="defs6"><linearGradient
       x1="0"
       y1="0"
       x2="1"
       y2="0"
       gradientUnits="userSpaceOnUse"
       gradientTransform="matrix(0,301.02258,301.02258,0,405.35434,-0.5501378)"
       spreadMethod="pad"
       id="linearGradient28"><stop
         style="stop-opacity:1;stop-color:#212d42"
         offset="0"
         id="stop22" /><stop
         style="stop-opacity:1;stop-color:#212d42"
         offset="0.79908746"
         id="stop24" /><stop
         style="stop-opacity:1;stop-color:#161f2d"
         offset="1"
         id="stop26" /></linearGradient><clipPath
       clipPathUnits="userSpaceOnUse"
       id="clipPath38"><path
         d="M 0,300.472 H 810.709 V 0 H 0 Z"
         id="path36" /></clipPath><clipPath
       clipPathUnits="userSpaceOnUse"
       id="clipPath518"><path
         d="M 0,300.472 H 810.709 V 0 H 0 Z"
         id="path516" /></clipPath><clipPath
       clipPathUnits="userSpaceOnUse"
       id="clipPath562"><path
         d="M 0,300.472 H 810.709 V 0 H 0 Z"
         id="path560" /></clipPath><clipPath
       clipPathUnits="userSpaceOnUse"
       id="clipPath570"><path
         d="M 42.5045,473.247 H 510.891 V 4.8605 H 42.5045 Z"
         id="path568" /></clipPath><clipPath
       clipPathUnits="userSpaceOnUse"
       id="clipPath586"><path
         d="M 68.01,447.741 H 485.385 V 30.3661 H 68.01 Z"
         id="path584" /></clipPath><clipPath
       clipPathUnits="userSpaceOnUse"
       id="clipPath602"><path
         d="m 101.776,413.976 h 357.67 V 56.3056 h -357.67 z"
         id="path600" /></clipPath><clipPath
       clipPathUnits="userSpaceOnUse"
       id="clipPath618"><path
         d="m 138.584,300.472 c -8.358,-18.766 -13.003,-39.55 -13.003,-61.419 v 0 c 0,-83.459 67.657,-151.117 151.117,-151.117 v 0 c 83.46,0 151.117,67.658 151.117,151.117 v 0 c 0,21.869 -4.646,42.653 -13.003,61.419 v 0 z"
         id="path616" /></clipPath><clipPath
       clipPathUnits="userSpaceOnUse"
       id="clipPath654"><path
         d="M 0,300.472 H 810.709 V 0 H 0 Z"
         id="path652" /></clipPath><clipPath
       clipPathUnits="userSpaceOnUse"
       id="clipPath670"><path
         d="M 0,300.472 H 810.709 V 0 H 0 Z"
         id="path668" /></clipPath><clipPath
       clipPathUnits="userSpaceOnUse"
       id="clipPath714"><path
         d="M 0,300.472 H 810.709 V 0 H 0 Z"
         id="path712" /></clipPath></defs><sodipodi:namedview
     id="namedview4"
     pagecolor="#505050"
     bordercolor="#ffffff"
     borderopacity="1"
     inkscape:pageshadow="0"
     inkscape:pageopacity="0"
     inkscape:pagecheckerboard="1"
     showgrid="false"
     inkscape:zoom="1.6380064"
     inkscape:cx="367.51992"
     inkscape:cy="351.34172"
     inkscape:window-width="1920"
     inkscape:window-height="1001"
     inkscape:window-x="-9"
     inkscape:window-y="-9"
     inkscape:window-maximized="1"
     inkscape:current-layer="svg2"
     inkscape:showpageshadow="0"
     inkscape:deskcolor="#d1d1d1" /><g
     id="g8"
     inkscape:label="Ot5"
     transform="matrix(1.3333333,0,0,-1.3333333,0,400.62933)"
     inkscape:groupmode="layer"><g
       id="g664"
       inkscape:groupmode="layer"
       style="display:inline"
       inkscape:label="land"><g
         inkscape:groupmode="layer"
         id="layer2"
         inkscape:label="trees"
         style="display:inline"><path
           d="m 177.09676,28.832703 h -17.65598 v 37.605 h 17.65598 z"
           style="display:inline;fill:#8f7b75;fill-opacity:1;fill-rule:nonzero;stroke:none;stroke-width:1"
           id="path680-1" /><path
           d="m 141.7858,28.832703 h 17.65598 v 37.605 H 141.7858 Z"
           style="display:inline;fill:#77655e;fill-opacity:1;fill-rule:nonzero;stroke:none;stroke-width:1"
           id="path682-0" /><path
           d="M 101.33262,19.372703 H 83.676642 v 37.605 h 17.655978 z"
           style="display:inline;fill:#8f7b75;fill-opacity:1;fill-rule:nonzero;stroke:none;stroke-width:1"
           id="path692-5" /><path
           d="m 66.02066,19.372703 h 17.655982 v 37.605 H 66.02066 Z"
           style="display:inline;fill:#77655e;fill-opacity:1;fill-rule:nonzero;stroke:none;stroke-width:1"
           id="path694-1" /><path
           d="M 226.37794,61.094004 C 204.06556,117.137 181.75317,173.18 159.44079,229.222 V 61.094004 Z"
           style="display:inline;fill:#4ca069;fill-opacity:1;fill-rule:nonzero;stroke:none;stroke-width:1"
           id="path686-1" /><path
           d="M 92.504543,61.094004 C 114.81693,117.137 137.12931,173.18 159.44169,229.222 V 61.094004 Z"
           style="display:inline;fill:#30824e;fill-opacity:1;fill-rule:nonzero;stroke:none;stroke-width:1"
           id="path690-9" /><path
           d="M 150.61329,51.633604 C 128.30091,107.6766 105.98852,163.7196 83.67614,219.7616 V 51.633604 Z"
           style="display:inline;fill:#4ca069;fill-opacity:1;fill-rule:nonzero;stroke:none;stroke-width:1"
           id="path698-0" /><path
           d="M 16.739894,51.633604 C 39.052277,107.6766 61.36466,163.7196 83.677043,219.7616 V 51.633604 Z"
           style="display:inline;fill:#30824e;fill-opacity:1;fill-rule:nonzero;stroke:none;stroke-width:1"
           id="path702-4" /></g><g
         id="g704"
         transform="translate(810.7087,-0.5501)"
         inkscape:groupmode="layer"
         style="display:inline"
         inkscape:label="ground"><path
           d="M 1.5413503,-1.5332968 V 19.389703 c -81.5517653,8.354 -166.9328403,14.704 -255.8842603,18.383 -202.16049,8.361 -389.1272,1.532 -557.86579,-13.787 V -1.5332968 Z"
           style="fill:#b3998a;fill-opacity:1;fill-rule:nonzero;stroke:none;stroke-width:1"
           id="path706" /></g></g></g></svg>
