<?xml version="1.0" encoding="UTF-8" standalone="no"?>
<!-- Created with Inkscape (http://www.inkscape.org/) -->

<svg
   version="1.1"
   id="svg2"
   xml:space="preserve"
   width="1080.9453"
   height="400.62933"
   viewBox="0 0 1080.9453 400.62933"
   sodipodi:docname="planet.svg"
   inkscape:version="1.1.1 (3bf5ae0d25, 2021-09-20)"
   xmlns:inkscape="http://www.inkscape.org/namespaces/inkscape"
   xmlns:sodipodi="http://sodipodi.sourceforge.net/DTD/sodipodi-0.dtd"
   xmlns="http://www.w3.org/2000/svg"
   xmlns:svg="http://www.w3.org/2000/svg"><defs
     id="defs6"><linearGradient
       x1="0"
       y1="0"
       x2="1"
       y2="0"
       gradientUnits="userSpaceOnUse"
       gradientTransform="matrix(0,301.02258,301.02258,0,405.35434,-0.5501378)"
       spreadMethod="pad"
       id="linearGradient28"><stop
         style="stop-opacity:1;stop-color:#212d42"
         offset="0"
         id="stop22" /><stop
         style="stop-opacity:1;stop-color:#212d42"
         offset="0.79908746"
         id="stop24" /><stop
         style="stop-opacity:1;stop-color:#161f2d"
         offset="1"
         id="stop26" /></linearGradient><clipPath
       clipPathUnits="userSpaceOnUse"
       id="clipPath38"><path
         d="M 0,300.472 H 810.709 V 0 H 0 Z"
         id="path36" /></clipPath><clipPath
       clipPathUnits="userSpaceOnUse"
       id="clipPath518"><path
         d="M 0,300.472 H 810.709 V 0 H 0 Z"
         id="path516" /></clipPath><clipPath
       clipPathUnits="userSpaceOnUse"
       id="clipPath562"><path
         d="M 0,300.472 H 810.709 V 0 H 0 Z"
         id="path560" /></clipPath><clipPath
       clipPathUnits="userSpaceOnUse"
       id="clipPath570"><path
         d="M 42.5045,473.247 H 510.891 V 4.8605 H 42.5045 Z"
         id="path568" /></clipPath><clipPath
       clipPathUnits="userSpaceOnUse"
       id="clipPath586"><path
         d="M 68.01,447.741 H 485.385 V 30.3661 H 68.01 Z"
         id="path584" /></clipPath><clipPath
       clipPathUnits="userSpaceOnUse"
       id="clipPath602"><path
         d="m 101.776,413.976 h 357.67 V 56.3056 h -357.67 z"
         id="path600" /></clipPath><clipPath
       clipPathUnits="userSpaceOnUse"
       id="clipPath618"><path
         d="m 138.584,300.472 c -8.358,-18.766 -13.003,-39.55 -13.003,-61.419 v 0 c 0,-83.459 67.657,-151.117 151.117,-151.117 v 0 c 83.46,0 151.117,67.658 151.117,151.117 v 0 c 0,21.869 -4.646,42.653 -13.003,61.419 v 0 z"
         id="path616" /></clipPath><clipPath
       clipPathUnits="userSpaceOnUse"
       id="clipPath654"><path
         d="M 0,300.472 H 810.709 V 0 H 0 Z"
         id="path652" /></clipPath><clipPath
       clipPathUnits="userSpaceOnUse"
       id="clipPath670"><path
         d="M 0,300.472 H 810.709 V 0 H 0 Z"
         id="path668" /></clipPath><clipPath
       clipPathUnits="userSpaceOnUse"
       id="clipPath714"><path
         d="M 0,300.472 H 810.709 V 0 H 0 Z"
         id="path712" /></clipPath></defs><sodipodi:namedview
     id="namedview4"
     pagecolor="#505050"
     bordercolor="#ffffff"
     borderopacity="1"
     inkscape:pageshadow="0"
     inkscape:pageopacity="0"
     inkscape:pagecheckerboard="1"
     showgrid="false"
     inkscape:zoom="0.57912273"
     inkscape:cx="574.14428"
     inkscape:cy="270.23633"
     inkscape:window-width="1920"
     inkscape:window-height="1001"
     inkscape:window-x="-9"
     inkscape:window-y="141"
     inkscape:window-maximized="1"
     inkscape:current-layer="g512" /><g
     id="g8"
     inkscape:label="Ot5"
     transform="matrix(1.3333333,0,0,-1.3333333,0,400.62933)"
     inkscape:groupmode="layer"><g
       id="g512"
       inkscape:groupmode="layer"
       style="display:inline"
       inkscape:label="planet"><g
         id="g514"
         clip-path="url(#clipPath518)"><g
           id="g520"
           transform="translate(526.9294,186.2025)"><path
             d="m 0,0 c 0,45.969 37.265,83.234 83.234,83.234 45.969,0 83.234,-37.265 83.234,-83.234 0,-45.969 -37.265,-83.234 -83.234,-83.234 C 37.265,-83.234 0,-45.969 0,0"
             style="fill:#eff0e4;fill-opacity:1;fill-rule:nonzero;stroke:none"
             id="path522" /></g><g
           id="g524"
           transform="translate(663.3294,250.2467)"><path
             d="m 0,0 c 5.683,-4.795 14.469,-13.438 21.233,-26.686 0,0 5.705,-11.174 7.899,-23.188 4.129,-22.612 -2.763,-60.3 -32.229,-81.911 -30.361,-22.267 -74.897,-20.283 -106.385,6.451 36.4,-9.464 74.826,3.285 97.422,32.226 C 8.384,-66.924 12.933,-31.25 0,0"
             style="fill:#b0a998;fill-opacity:1;fill-rule:nonzero;stroke:none"
             id="path526" /></g><g
           id="g528"
           transform="translate(568.2912,230.7557)"><path
             d="m 0,0 c 0,7.614 6.173,13.787 13.787,13.787 7.615,0 13.787,-6.173 13.787,-13.787 0,-7.614 -6.172,-13.787 -13.787,-13.787 C 6.173,-13.787 0,-7.614 0,0"
             style="fill:#b0a998;fill-opacity:1;fill-rule:nonzero;stroke:none"
             id="path530" /></g><g
           id="g532"
           transform="translate(542.7593,195.0111)"><path
             d="m 0,0 c 0,9.307 7.544,16.851 16.851,16.851 9.307,0 16.851,-7.544 16.851,-16.851 0,-9.307 -7.544,-16.851 -16.851,-16.851 C 7.544,-16.851 0,-9.307 0,0"
             style="fill:#b0a998;fill-opacity:1;fill-rule:nonzero;stroke:none"
             id="path534" /></g><g
           id="g536"
           transform="translate(595.8657,190.4153)"><path
             d="m 0,0 c 0,6.768 5.487,12.255 12.255,12.255 6.769,0 12.256,-5.487 12.256,-12.255 0,-6.768 -5.487,-12.255 -12.256,-12.255 C 5.487,-12.255 0,-6.768 0,0"
             style="fill:#b0a998;fill-opacity:1;fill-rule:nonzero;stroke:none"
             id="path538" /></g><g
           id="g540"
           transform="translate(576.4614,144.4579)"><path
             d="m 0,0 c 0,5.358 4.344,9.702 9.702,9.702 5.358,0 9.702,-4.344 9.702,-9.702 0,-5.358 -4.344,-9.702 -9.702,-9.702 C 4.344,-9.702 0,-5.358 0,0"
             style="fill:#b0a998;fill-opacity:1;fill-rule:nonzero;stroke:none"
             id="path542" /></g><g
           id="g544"
           transform="translate(618.0784,239.0536)"><path
             d="m 0,0 c 0,4.583 3.715,8.298 8.298,8.298 4.583,0 8.298,-3.715 8.298,-8.298 0,-4.583 -3.715,-8.298 -8.298,-8.298 C 3.715,-8.298 0,-4.583 0,0"
             style="fill:#b0a998;fill-opacity:1;fill-rule:nonzero;stroke:none"
             id="path546" /></g><g
           id="g548"
           transform="translate(644.3763,190.4153)"><path
             d="m 0,0 c 0,7.05 5.716,12.766 12.766,12.766 7.05,0 12.766,-5.716 12.766,-12.766 0,-7.05 -5.716,-12.766 -12.766,-12.766 C 5.716,-12.766 0,-7.05 0,0"
             style="fill:#b0a998;fill-opacity:1;fill-rule:nonzero;stroke:none"
             id="path550" /></g><g
           id="g552"
           transform="translate(644.3763,190.4153)"><path
             d="m 0,0 c 0,7.05 5.716,12.766 12.766,12.766 7.05,0 12.766,-5.716 12.766,-12.766 0,-7.05 -5.716,-12.766 -12.766,-12.766 C 5.716,-12.766 0,-7.05 0,0 Z"
             style="fill:none;stroke:#f0f0e4;stroke-width:3;stroke-linecap:butt;stroke-linejoin:miter;stroke-miterlimit:10;stroke-dasharray:none;stroke-opacity:1"
             id="path554" /></g></g></g></g></svg>
