<?xml version="1.0" encoding="UTF-8" standalone="no"?>
<!-- Created with Inkscape (http://www.inkscape.org/) -->

<svg
   version="1.1"
   id="svg2"
   xml:space="preserve"
   width="1080.9453"
   height="400.62933"
   viewBox="0 0 1080.9453 400.62933"
   sodipodi:docname="view.svg"
   inkscape:version="1.1.1 (3bf5ae0d25, 2021-09-20)"
   xmlns:inkscape="http://www.inkscape.org/namespaces/inkscape"
   xmlns:sodipodi="http://sodipodi.sourceforge.net/DTD/sodipodi-0.dtd"
   xmlns="http://www.w3.org/2000/svg"
   xmlns:svg="http://www.w3.org/2000/svg"><defs
     id="defs6"><linearGradient
       x1="0"
       y1="0"
       x2="1"
       y2="0"
       gradientUnits="userSpaceOnUse"
       gradientTransform="matrix(0,301.02258,301.02258,0,405.35434,-0.5501378)"
       spreadMethod="pad"
       id="linearGradient28"><stop
         style="stop-opacity:1;stop-color:#212d42"
         offset="0"
         id="stop22" /><stop
         style="stop-opacity:1;stop-color:#212d42"
         offset="0.79908746"
         id="stop24" /><stop
         style="stop-opacity:1;stop-color:#161f2d"
         offset="1"
         id="stop26" /></linearGradient><clipPath
       clipPathUnits="userSpaceOnUse"
       id="clipPath38"><path
         d="M 0,300.472 H 810.709 V 0 H 0 Z"
         id="path36" /></clipPath><clipPath
       clipPathUnits="userSpaceOnUse"
       id="clipPath518"><path
         d="M 0,300.472 H 810.709 V 0 H 0 Z"
         id="path516" /></clipPath><clipPath
       clipPathUnits="userSpaceOnUse"
       id="clipPath562"><path
         d="M 0,300.472 H 810.709 V 0 H 0 Z"
         id="path560" /></clipPath><clipPath
       clipPathUnits="userSpaceOnUse"
       id="clipPath570"><path
         d="M 42.5045,473.247 H 510.891 V 4.8605 H 42.5045 Z"
         id="path568" /></clipPath><clipPath
       clipPathUnits="userSpaceOnUse"
       id="clipPath586"><path
         d="M 68.01,447.741 H 485.385 V 30.3661 H 68.01 Z"
         id="path584" /></clipPath><clipPath
       clipPathUnits="userSpaceOnUse"
       id="clipPath602"><path
         d="m 101.776,413.976 h 357.67 V 56.3056 h -357.67 z"
         id="path600" /></clipPath><clipPath
       clipPathUnits="userSpaceOnUse"
       id="clipPath618"><path
         d="m 138.584,300.472 c -8.358,-18.766 -13.003,-39.55 -13.003,-61.419 v 0 c 0,-83.459 67.657,-151.117 151.117,-151.117 v 0 c 83.46,0 151.117,67.658 151.117,151.117 v 0 c 0,21.869 -4.646,42.653 -13.003,61.419 v 0 z"
         id="path616" /></clipPath><clipPath
       clipPathUnits="userSpaceOnUse"
       id="clipPath654"><path
         d="M 0,300.472 H 810.709 V 0 H 0 Z"
         id="path652" /></clipPath><clipPath
       clipPathUnits="userSpaceOnUse"
       id="clipPath670"><path
         d="M 0,300.472 H 810.709 V 0 H 0 Z"
         id="path668" /></clipPath><clipPath
       clipPathUnits="userSpaceOnUse"
       id="clipPath714"><path
         d="M 0,300.472 H 810.709 V 0 H 0 Z"
         id="path712" /></clipPath></defs><sodipodi:namedview
     id="namedview4"
     pagecolor="#505050"
     bordercolor="#ffffff"
     borderopacity="1"
     inkscape:pageshadow="0"
     inkscape:pageopacity="0"
     inkscape:pagecheckerboard="1"
     showgrid="false"
     inkscape:zoom="0.57912273"
     inkscape:cx="574.14428"
     inkscape:cy="270.23633"
     inkscape:window-width="1920"
     inkscape:window-height="1001"
     inkscape:window-x="-9"
     inkscape:window-y="-9"
     inkscape:window-maximized="1"
     inkscape:current-layer="g664" /><g
     id="g8"
     inkscape:label="Ot5"
     transform="matrix(1.3333333,0,0,-1.3333333,0,400.62933)"
     inkscape:groupmode="layer"><g
       id="g10"
       inkscape:groupmode="layer"
       style="display:inline"
       inkscape:label="bg"><g
         id="g12"><g
           id="g18"><g
             id="g20"><path
               d="M 0,0 H 810.708 V 300.472 H 0 Z"
               style="fill:url(#linearGradient28);stroke:none"
               id="path30" /></g></g></g></g><g
       id="g32"
       inkscape:groupmode="layer"
       style="display:inline"
       inkscape:label="stars"><g
         id="g34"
         clip-path="url(#clipPath38)"><g
           id="g40"
           transform="translate(7.1963,274.7915)"><path
             d="m 0,0 c 0,-0.138 -0.112,-0.25 -0.25,-0.25 -0.137,0 -0.249,0.112 -0.249,0.25 0,0.138 0.112,0.25 0.249,0.25 C -0.112,0.25 0,0.138 0,0"
             style="fill:#ffffff;fill-opacity:1;fill-rule:nonzero;stroke:none"
             id="path42" /></g><g
           id="g44"
           transform="translate(7.1812,278.25)"><path
             d="m 0,0 c 0,-0.138 -0.111,-0.25 -0.25,-0.25 -0.137,0 -0.249,0.112 -0.249,0.25 0,0.138 0.112,0.25 0.249,0.25 C -0.111,0.25 0,0.138 0,0"
             style="fill:#ffffff;fill-opacity:1;fill-rule:nonzero;stroke:none"
             id="path46" /></g><g
           id="g48"
           transform="translate(66.5098,269.5059)"><path
             d="m 0,0 c 0,-0.138 -0.112,-0.25 -0.25,-0.25 -0.138,0 -0.249,0.112 -0.249,0.25 0,0.138 0.111,0.25 0.249,0.25 C -0.112,0.25 0,0.138 0,0"
             style="fill:#ffffff;fill-opacity:1;fill-rule:nonzero;stroke:none"
             id="path50" /></g><g
           id="g52"
           transform="translate(138.5762,270.6709)"><path
             d="m 0,0 c 0,-0.138 -0.111,-0.25 -0.249,-0.25 -0.138,0 -0.25,0.112 -0.25,0.25 0,0.138 0.112,0.25 0.25,0.25 C -0.111,0.25 0,0.138 0,0"
             style="fill:#ffffff;fill-opacity:1;fill-rule:nonzero;stroke:none"
             id="path54" /></g><g
           id="g56"
           transform="translate(209.1362,272.7036)"><path
             d="m 0,0 c 0,-0.138 -0.112,-0.25 -0.25,-0.25 -0.137,0 -0.249,0.112 -0.249,0.25 0,0.138 0.112,0.25 0.249,0.25 C -0.112,0.25 0,0.138 0,0"
             style="fill:#ffffff;fill-opacity:1;fill-rule:nonzero;stroke:none"
             id="path58" /></g><g
           id="g60"
           transform="translate(315.2832,277.751)"><path
             d="m 0,0 c 0,-0.138 -0.112,-0.25 -0.25,-0.25 -0.137,0 -0.249,0.112 -0.249,0.25 0,0.138 0.112,0.25 0.249,0.25 C -0.112,0.25 0,0.138 0,0"
             style="fill:#ffffff;fill-opacity:1;fill-rule:nonzero;stroke:none"
             id="path62" /></g><g
           id="g64"
           transform="translate(389.9058,277.771)"><path
             d="m 0,0 c 0,-0.138 -0.111,-0.25 -0.249,-0.25 -0.138,0 -0.25,0.112 -0.25,0.25 0,0.138 0.112,0.25 0.25,0.25 C -0.111,0.25 0,0.138 0,0"
             style="fill:#ffffff;fill-opacity:1;fill-rule:nonzero;stroke:none"
             id="path66" /></g><g
           id="g68"
           transform="translate(478.9355,277.8491)"><path
             d="m 0,0 c 0,-0.138 -0.112,-0.25 -0.25,-0.25 -0.138,0 -0.249,0.112 -0.249,0.25 0,0.138 0.111,0.25 0.249,0.25 C -0.112,0.25 0,0.138 0,0"
             style="fill:#ffffff;fill-opacity:1;fill-rule:nonzero;stroke:none"
             id="path70" /></g><g
           id="g72"
           transform="translate(537.1191,280.082)"><path
             d="m 0,0 c 0,-0.138 -0.112,-0.25 -0.25,-0.25 -0.138,0 -0.249,0.112 -0.249,0.25 0,0.138 0.111,0.25 0.249,0.25 C -0.112,0.25 0,0.138 0,0"
             style="fill:#ffffff;fill-opacity:1;fill-rule:nonzero;stroke:none"
             id="path74" /></g><g
           id="g76"
           transform="translate(588.4805,281.9478)"><path
             d="m 0,0 c 0,-0.138 -0.111,-0.25 -0.25,-0.25 -0.138,0 -0.249,0.112 -0.249,0.25 0,0.138 0.111,0.25 0.249,0.25 C -0.111,0.25 0,0.138 0,0"
             style="fill:#ffffff;fill-opacity:1;fill-rule:nonzero;stroke:none"
             id="path78" /></g><g
           id="g80"
           transform="translate(656.9482,289.1685)"><path
             d="m 0,0 c 0,-0.138 -0.112,-0.25 -0.25,-0.25 -0.138,0 -0.249,0.112 -0.249,0.25 0,0.138 0.111,0.25 0.249,0.25 C -0.112,0.25 0,0.138 0,0"
             style="fill:#ffffff;fill-opacity:1;fill-rule:nonzero;stroke:none"
             id="path82" /></g><g
           id="g84"
           transform="translate(707.0098,288.1455)"><path
             d="m 0,0 c 0,-0.138 -0.112,-0.25 -0.25,-0.25 -0.138,0 -0.249,0.112 -0.249,0.25 0,0.138 0.111,0.25 0.249,0.25 C -0.112,0.25 0,0.138 0,0"
             style="fill:#ffffff;fill-opacity:1;fill-rule:nonzero;stroke:none"
             id="path86" /></g><g
           id="g88"
           transform="translate(770.6367,279.0889)"><path
             d="m 0,0 c 0,-0.138 -0.111,-0.25 -0.249,-0.25 -0.138,0 -0.249,0.112 -0.249,0.25 0,0.138 0.111,0.25 0.249,0.25 C -0.111,0.25 0,0.138 0,0"
             style="fill:#ffffff;fill-opacity:1;fill-rule:nonzero;stroke:none"
             id="path90" /></g><g
           id="g92"
           transform="translate(803.1016,267.7642)"><path
             d="m 0,0 c 0,-0.138 -0.111,-0.25 -0.249,-0.25 -0.138,0 -0.25,0.112 -0.25,0.25 0,0.138 0.112,0.25 0.25,0.25 C -0.111,0.25 0,0.138 0,0"
             style="fill:#ffffff;fill-opacity:1;fill-rule:nonzero;stroke:none"
             id="path94" /></g><g
           id="g96"
           transform="translate(794.875,260.5176)"><path
             d="m 0,0 c 0,-0.138 -0.111,-0.25 -0.249,-0.25 -0.138,0 -0.249,0.112 -0.249,0.25 0,0.138 0.111,0.25 0.249,0.25 C -0.111,0.25 0,0.138 0,0"
             style="fill:#ffffff;fill-opacity:1;fill-rule:nonzero;stroke:none"
             id="path98" /></g><g
           id="g100"
           transform="translate(738.3877,257.4062)"><path
             d="m 0,0 c 0,-0.138 -0.111,-0.25 -0.249,-0.25 -0.138,0 -0.25,0.112 -0.25,0.25 0,0.138 0.112,0.25 0.25,0.25 C -0.111,0.25 0,0.138 0,0"
             style="fill:#ffffff;fill-opacity:1;fill-rule:nonzero;stroke:none"
             id="path102" /></g><g
           id="g104"
           transform="translate(643.5713,249.7563)"><path
             d="m 0,0 c 0,-0.138 -0.111,-0.25 -0.249,-0.25 -0.138,0 -0.249,0.112 -0.249,0.25 0,0.138 0.111,0.25 0.249,0.25 C -0.111,0.25 0,0.138 0,0"
             style="fill:#ffffff;fill-opacity:1;fill-rule:nonzero;stroke:none"
             id="path106" /></g><g
           id="g108"
           transform="translate(546.3945,234.6074)"><path
             d="m 0,0 c 0,-0.138 -0.111,-0.25 -0.249,-0.25 -0.138,0 -0.25,0.112 -0.25,0.25 0,0.138 0.112,0.25 0.25,0.25 C -0.111,0.25 0,0.138 0,0"
             style="fill:#ffffff;fill-opacity:1;fill-rule:nonzero;stroke:none"
             id="path110" /></g><g
           id="g112"
           transform="translate(416.21,213.7124)"><path
             d="m 0,0 c 0,-0.138 -0.112,-0.25 -0.25,-0.25 -0.138,0 -0.249,0.112 -0.249,0.25 0,0.138 0.111,0.25 0.249,0.25 C -0.112,0.25 0,0.138 0,0"
             style="fill:#ffffff;fill-opacity:1;fill-rule:nonzero;stroke:none"
             id="path114" /></g><g
           id="g116"
           transform="translate(297.8965,208.6543)"><path
             d="m 0,0 c 0,-0.138 -0.112,-0.25 -0.25,-0.25 -0.137,0 -0.249,0.112 -0.249,0.25 0,0.138 0.112,0.25 0.249,0.25 C -0.112,0.25 0,0.138 0,0"
             style="fill:#ffffff;fill-opacity:1;fill-rule:nonzero;stroke:none"
             id="path118" /></g><g
           id="g120"
           transform="translate(226.499,211.2734)"><path
             d="m 0,0 c 0,-0.138 -0.111,-0.25 -0.25,-0.25 -0.137,0 -0.249,0.112 -0.249,0.25 0,0.138 0.112,0.25 0.249,0.25 C -0.111,0.25 0,0.138 0,0"
             style="fill:#ffffff;fill-opacity:1;fill-rule:nonzero;stroke:none"
             id="path122" /></g><g
           id="g124"
           transform="translate(159.5415,224.229)"><path
             d="m 0,0 c 0,-0.138 -0.112,-0.25 -0.25,-0.25 -0.137,0 -0.249,0.112 -0.249,0.25 0,0.138 0.112,0.25 0.249,0.25 C -0.112,0.25 0,0.138 0,0"
             style="fill:#ffffff;fill-opacity:1;fill-rule:nonzero;stroke:none"
             id="path126" /></g><g
           id="g128"
           transform="translate(87.3237,216.0923)"><path
             d="m 0,0 c 0,-0.138 -0.112,-0.25 -0.25,-0.25 -0.137,0 -0.249,0.112 -0.249,0.25 0,0.138 0.112,0.25 0.249,0.25 C -0.112,0.25 0,0.138 0,0"
             style="fill:#ffffff;fill-opacity:1;fill-rule:nonzero;stroke:none"
             id="path130" /></g><g
           id="g132"
           transform="translate(31.3516,200.6387)"><path
             d="m 0,0 c 0,-0.138 -0.112,-0.25 -0.25,-0.25 -0.138,0 -0.249,0.112 -0.249,0.25 0,0.138 0.111,0.25 0.249,0.25 C -0.112,0.25 0,0.138 0,0"
             style="fill:#ffffff;fill-opacity:1;fill-rule:nonzero;stroke:none"
             id="path134" /></g><g
           id="g136"
           transform="translate(25.1733,170.4365)"><path
             d="m 0,0 c 0,-0.138 -0.112,-0.25 -0.25,-0.25 -0.137,0 -0.249,0.112 -0.249,0.25 0,0.138 0.112,0.25 0.249,0.25 C -0.112,0.25 0,0.138 0,0"
             style="fill:#ffffff;fill-opacity:1;fill-rule:nonzero;stroke:none"
             id="path138" /></g><g
           id="g140"
           transform="translate(85.4248,113.6592)"><path
             d="m 0,0 c 0,-0.138 -0.111,-0.25 -0.25,-0.25 -0.137,0 -0.249,0.112 -0.249,0.25 0,0.138 0.112,0.25 0.249,0.25 C -0.111,0.25 0,0.138 0,0"
             style="fill:#ffffff;fill-opacity:1;fill-rule:nonzero;stroke:none"
             id="path142" /></g><g
           id="g144"
           transform="translate(180.5869,130.4424)"><path
             d="m 0,0 c 0,-0.138 -0.112,-0.25 -0.25,-0.25 -0.137,0 -0.249,0.112 -0.249,0.25 0,0.138 0.112,0.25 0.249,0.25 C -0.112,0.25 0,0.138 0,0"
             style="fill:#ffffff;fill-opacity:1;fill-rule:nonzero;stroke:none"
             id="path146" /></g><g
           id="g148"
           transform="translate(332.979,161.186)"><path
             d="m 0,0 c 0,-0.138 -0.112,-0.25 -0.25,-0.25 -0.137,0 -0.249,0.112 -0.249,0.25 0,0.138 0.112,0.25 0.249,0.25 C -0.112,0.25 0,0.138 0,0"
             style="fill:#ffffff;fill-opacity:1;fill-rule:nonzero;stroke:none"
             id="path150" /></g><g
           id="g152"
           transform="translate(473.0566,218.6646)"><path
             d="m 0,0 c 0,-0.138 -0.111,-0.25 -0.249,-0.25 -0.138,0 -0.25,0.112 -0.25,0.25 0,0.138 0.112,0.25 0.25,0.25 C -0.111,0.25 0,0.138 0,0"
             style="fill:#ffffff;fill-opacity:1;fill-rule:nonzero;stroke:none"
             id="path154" /></g><g
           id="g156"
           transform="translate(534.4336,240.0889)"><path
             d="m 0,0 c 0,-0.138 -0.111,-0.25 -0.249,-0.25 -0.138,0 -0.25,0.112 -0.25,0.25 0,0.138 0.112,0.25 0.25,0.25 C -0.111,0.25 0,0.138 0,0"
             style="fill:#ffffff;fill-opacity:1;fill-rule:nonzero;stroke:none"
             id="path158" /></g><g
           id="g160"
           transform="translate(655.9307,213.1885)"><path
             d="m 0,0 c 0,-0.138 -0.112,-0.25 -0.25,-0.25 -0.138,0 -0.249,0.112 -0.249,0.25 0,0.138 0.111,0.25 0.249,0.25 C -0.112,0.25 0,0.138 0,0"
             style="fill:#ffffff;fill-opacity:1;fill-rule:nonzero;stroke:none"
             id="path162" /></g><g
           id="g164"
           transform="translate(686.623,203.7861)"><path
             d="m 0,0 c 0,-0.138 -0.112,-0.25 -0.25,-0.25 -0.138,0 -0.249,0.112 -0.249,0.25 0,0.138 0.111,0.25 0.249,0.25 C -0.112,0.25 0,0.138 0,0"
             style="fill:#ffffff;fill-opacity:1;fill-rule:nonzero;stroke:none"
             id="path166" /></g><g
           id="g168"
           transform="translate(573.0801,168.8359)"><path
             d="m 0,0 c 0,-0.138 -0.111,-0.25 -0.249,-0.25 -0.138,0 -0.249,0.112 -0.249,0.25 0,0.138 0.111,0.25 0.249,0.25 C -0.111,0.25 0,0.138 0,0"
             style="fill:#ffffff;fill-opacity:1;fill-rule:nonzero;stroke:none"
             id="path170" /></g><g
           id="g172"
           transform="translate(486.2051,130.0576)"><path
             d="m 0,0 c 0,-0.139 -0.111,-0.25 -0.249,-0.25 -0.138,0 -0.25,0.111 -0.25,0.25 0,0.138 0.112,0.25 0.25,0.25 C -0.111,0.25 0,0.138 0,0"
             style="fill:#ffffff;fill-opacity:1;fill-rule:nonzero;stroke:none"
             id="path174" /></g><g
           id="g176"
           transform="translate(384.9829,93.3389)"><path
             d="m 0,0 c 0,-0.138 -0.111,-0.25 -0.25,-0.25 -0.137,0 -0.249,0.112 -0.249,0.25 0,0.139 0.112,0.25 0.249,0.25 C -0.111,0.25 0,0.139 0,0"
             style="fill:#ffffff;fill-opacity:1;fill-rule:nonzero;stroke:none"
             id="path178" /></g><g
           id="g180"
           transform="translate(296.0327,78.0605)"><path
             d="m 0,0 c 0,-0.138 -0.112,-0.25 -0.25,-0.25 -0.137,0 -0.249,0.112 -0.249,0.25 0,0.139 0.112,0.25 0.249,0.25 C -0.112,0.25 0,0.139 0,0"
             style="fill:#ffffff;fill-opacity:1;fill-rule:nonzero;stroke:none"
             id="path182" /></g><g
           id="g184"
           transform="translate(259.1621,71.96)"><path
             d="m 0,0 c 0,-0.139 -0.111,-0.25 -0.249,-0.25 -0.138,0 -0.25,0.111 -0.25,0.25 0,0.138 0.112,0.25 0.25,0.25 C -0.111,0.25 0,0.138 0,0"
             style="fill:#ffffff;fill-opacity:1;fill-rule:nonzero;stroke:none"
             id="path186" /></g><g
           id="g188"
           transform="translate(211.1289,65.833)"><path
             d="m 0,0 c 0,-0.138 -0.111,-0.25 -0.249,-0.25 -0.138,0 -0.25,0.112 -0.25,0.25 0,0.139 0.112,0.25 0.25,0.25 C -0.111,0.25 0,0.139 0,0"
             style="fill:#ffffff;fill-opacity:1;fill-rule:nonzero;stroke:none"
             id="path190" /></g><g
           id="g192"
           transform="translate(149.769,54.5586)"><path
             d="m 0,0 c 0,-0.138 -0.112,-0.25 -0.25,-0.25 -0.137,0 -0.249,0.112 -0.249,0.25 0,0.138 0.112,0.25 0.249,0.25 C -0.112,0.25 0,0.138 0,0"
             style="fill:#ffffff;fill-opacity:1;fill-rule:nonzero;stroke:none"
             id="path194" /></g><g
           id="g196"
           transform="translate(67.9302,46.3984)"><path
             d="m 0,0 c 0,-0.139 -0.112,-0.25 -0.25,-0.25 -0.137,0 -0.249,0.111 -0.249,0.25 0,0.138 0.112,0.25 0.249,0.25 C -0.112,0.25 0,0.138 0,0"
             style="fill:#ffffff;fill-opacity:1;fill-rule:nonzero;stroke:none"
             id="path198" /></g><g
           id="g200"
           transform="translate(40.1235,46.4268)"><path
             d="m 0,0 c 0,-0.138 -0.112,-0.25 -0.25,-0.25 -0.137,0 -0.249,0.112 -0.249,0.25 0,0.139 0.112,0.25 0.249,0.25 C -0.112,0.25 0,0.139 0,0"
             style="fill:#ffffff;fill-opacity:1;fill-rule:nonzero;stroke:none"
             id="path202" /></g><g
           id="g204"
           transform="translate(17.4771,70.0879)"><path
             d="m 0,0 c 0,-0.138 -0.112,-0.25 -0.25,-0.25 -0.137,0 -0.249,0.112 -0.249,0.25 0,0.139 0.112,0.25 0.249,0.25 C -0.112,0.25 0,0.139 0,0"
             style="fill:#ffffff;fill-opacity:1;fill-rule:nonzero;stroke:none"
             id="path206" /></g><g
           id="g208"
           transform="translate(73.7397,136.2402)"><path
             d="m 0,0 c 0,-0.138 -0.112,-0.25 -0.25,-0.25 -0.137,0 -0.249,0.112 -0.249,0.25 0,0.138 0.112,0.25 0.249,0.25 C -0.112,0.25 0,0.138 0,0"
             style="fill:#ffffff;fill-opacity:1;fill-rule:nonzero;stroke:none"
             id="path210" /></g><g
           id="g212"
           transform="translate(161.0049,119.0596)"><path
             d="m 0,0 c 0,-0.139 -0.112,-0.25 -0.25,-0.25 -0.137,0 -0.249,0.111 -0.249,0.25 0,0.138 0.112,0.25 0.249,0.25 C -0.112,0.25 0,0.138 0,0"
             style="fill:#ffffff;fill-opacity:1;fill-rule:nonzero;stroke:none"
             id="path214" /></g><g
           id="g216"
           transform="translate(344.1382,137.3506)"><path
             d="m 0,0 c 0,-0.138 -0.111,-0.25 -0.249,-0.25 -0.138,0 -0.25,0.112 -0.25,0.25 0,0.139 0.112,0.25 0.25,0.25 C -0.111,0.25 0,0.139 0,0"
             style="fill:#ffffff;fill-opacity:1;fill-rule:nonzero;stroke:none"
             id="path218" /></g><g
           id="g220"
           transform="translate(585.5547,180.2964)"><path
             d="m 0,0 c 0,-0.138 -0.112,-0.25 -0.25,-0.25 -0.138,0 -0.249,0.112 -0.249,0.25 0,0.138 0.111,0.25 0.249,0.25 C -0.112,0.25 0,0.138 0,0"
             style="fill:#ffffff;fill-opacity:1;fill-rule:nonzero;stroke:none"
             id="path222" /></g><g
           id="g224"
           transform="translate(684.5703,218.5977)"><path
             d="m 0,0 c 0,-0.138 -0.111,-0.25 -0.25,-0.25 -0.138,0 -0.249,0.112 -0.249,0.25 0,0.138 0.111,0.25 0.249,0.25 C -0.111,0.25 0,0.138 0,0"
             style="fill:#ffffff;fill-opacity:1;fill-rule:nonzero;stroke:none"
             id="path226" /></g><g
           id="g228"
           transform="translate(776.0762,227.8535)"><path
             d="m 0,0 c 0,-0.138 -0.112,-0.25 -0.25,-0.25 -0.138,0 -0.249,0.112 -0.249,0.25 0,0.138 0.111,0.25 0.249,0.25 C -0.112,0.25 0,0.138 0,0"
             style="fill:#ffffff;fill-opacity:1;fill-rule:nonzero;stroke:none"
             id="path230" /></g><g
           id="g232"
           transform="translate(809.0479,231.8076)"><path
             d="m 0,0 c 0,-0.138 -0.112,-0.25 -0.25,-0.25 -0.138,0 -0.249,0.112 -0.249,0.25 0,0.138 0.111,0.25 0.249,0.25 C -0.112,0.25 0,0.138 0,0"
             style="fill:#ffffff;fill-opacity:1;fill-rule:nonzero;stroke:none"
             id="path234" /></g><g
           id="g236"
           transform="translate(738.5352,187.9634)"><path
             d="m 0,0 c 0,-0.138 -0.112,-0.25 -0.25,-0.25 -0.138,0 -0.249,0.112 -0.249,0.25 0,0.138 0.111,0.25 0.249,0.25 C -0.112,0.25 0,0.138 0,0"
             style="fill:#ffffff;fill-opacity:1;fill-rule:nonzero;stroke:none"
             id="path238" /></g><g
           id="g240"
           transform="translate(640.6484,171.9956)"><path
             d="m 0,0 c 0,-0.138 -0.111,-0.25 -0.249,-0.25 -0.138,0 -0.25,0.112 -0.25,0.25 0,0.138 0.112,0.25 0.25,0.25 C -0.111,0.25 0,0.138 0,0"
             style="fill:#ffffff;fill-opacity:1;fill-rule:nonzero;stroke:none"
             id="path242" /></g><g
           id="g244"
           transform="translate(537.2451,159.7446)"><path
             d="m 0,0 c 0,-0.138 -0.111,-0.25 -0.25,-0.25 -0.138,0 -0.249,0.112 -0.249,0.25 0,0.138 0.111,0.25 0.249,0.25 C -0.111,0.25 0,0.138 0,0"
             style="fill:#ffffff;fill-opacity:1;fill-rule:nonzero;stroke:none"
             id="path246" /></g><g
           id="g248"
           transform="translate(460.6992,168.8901)"><path
             d="m 0,0 c 0,-0.138 -0.112,-0.25 -0.25,-0.25 -0.138,0 -0.249,0.112 -0.249,0.25 0,0.138 0.111,0.25 0.249,0.25 C -0.112,0.25 0,0.138 0,0"
             style="fill:#ffffff;fill-opacity:1;fill-rule:nonzero;stroke:none"
             id="path250" /></g><g
           id="g252"
           transform="translate(402.0244,180.4438)"><path
             d="m 0,0 c 0,-0.138 -0.111,-0.25 -0.25,-0.25 -0.137,0 -0.249,0.112 -0.249,0.25 0,0.138 0.112,0.25 0.249,0.25 C -0.111,0.25 0,0.138 0,0"
             style="fill:#ffffff;fill-opacity:1;fill-rule:nonzero;stroke:none"
             id="path254" /></g><g
           id="g256"
           transform="translate(427.4365,190.5996)"><path
             d="m 0,0 c 0,-0.138 -0.112,-0.25 -0.25,-0.25 -0.138,0 -0.249,0.112 -0.249,0.25 0,0.138 0.111,0.25 0.249,0.25 C -0.112,0.25 0,0.138 0,0"
             style="fill:#ffffff;fill-opacity:1;fill-rule:nonzero;stroke:none"
             id="path258" /></g><g
           id="g260"
           transform="translate(556.6025,198.75)"><path
             d="m 0,0 c 0,-0.138 -0.111,-0.25 -0.249,-0.25 -0.138,0 -0.25,0.112 -0.25,0.25 0,0.138 0.112,0.25 0.25,0.25 C -0.111,0.25 0,0.138 0,0"
             style="fill:#ffffff;fill-opacity:1;fill-rule:nonzero;stroke:none"
             id="path262" /></g><g
           id="g264"
           transform="translate(623.1953,214.3105)"><path
             d="m 0,0 c 0,-0.138 -0.111,-0.25 -0.25,-0.25 -0.138,0 -0.249,0.112 -0.249,0.25 0,0.138 0.111,0.25 0.249,0.25 C -0.111,0.25 0,0.138 0,0"
             style="fill:#ffffff;fill-opacity:1;fill-rule:nonzero;stroke:none"
             id="path266" /></g><g
           id="g268"
           transform="translate(480.167,237.4595)"><path
             d="m 0,0 c 0,-0.138 -0.112,-0.25 -0.25,-0.25 -0.138,0 -0.249,0.112 -0.249,0.25 0,0.138 0.111,0.25 0.249,0.25 C -0.112,0.25 0,0.138 0,0"
             style="fill:#ffffff;fill-opacity:1;fill-rule:nonzero;stroke:none"
             id="path270" /></g><g
           id="g272"
           transform="translate(309.0728,259.0259)"><path
             d="m 0,0 c 0,-0.138 -0.111,-0.25 -0.25,-0.25 -0.137,0 -0.249,0.112 -0.249,0.25 0,0.138 0.112,0.25 0.249,0.25 C -0.111,0.25 0,0.138 0,0"
             style="fill:#ffffff;fill-opacity:1;fill-rule:nonzero;stroke:none"
             id="path274" /></g><g
           id="g276"
           transform="translate(190.5708,262.2876)"><path
             d="m 0,0 c 0,-0.138 -0.112,-0.25 -0.25,-0.25 -0.137,0 -0.249,0.112 -0.249,0.25 0,0.138 0.112,0.25 0.249,0.25 C -0.112,0.25 0,0.138 0,0"
             style="fill:#ffffff;fill-opacity:1;fill-rule:nonzero;stroke:none"
             id="path278" /></g><g
           id="g280"
           transform="translate(126.0586,259.189)"><path
             d="m 0,0 c 0,-0.138 -0.112,-0.25 -0.25,-0.25 -0.137,0 -0.249,0.112 -0.249,0.25 0,0.138 0.112,0.25 0.249,0.25 C -0.112,0.25 0,0.138 0,0"
             style="fill:#ffffff;fill-opacity:1;fill-rule:nonzero;stroke:none"
             id="path282" /></g><g
           id="g284"
           transform="translate(25.5181,231.4434)"><path
             d="m 0,0 c 0,-0.138 -0.111,-0.25 -0.25,-0.25 -0.137,0 -0.249,0.112 -0.249,0.25 0,0.138 0.112,0.25 0.249,0.25 C -0.111,0.25 0,0.138 0,0"
             style="fill:#ffffff;fill-opacity:1;fill-rule:nonzero;stroke:none"
             id="path286" /></g><g
           id="g288"
           transform="translate(0.7637,226.1318)"><path
             d="m 0,0 c 0,-0.138 -0.112,-0.25 -0.25,-0.25 -0.137,0 -0.249,0.112 -0.249,0.25 0,0.138 0.112,0.25 0.249,0.25 C -0.112,0.25 0,0.138 0,0"
             style="fill:#ffffff;fill-opacity:1;fill-rule:nonzero;stroke:none"
             id="path290" /></g><g
           id="g292"
           transform="translate(70.6973,211.0542)"><path
             d="m 0,0 c 0,-0.138 -0.112,-0.25 -0.25,-0.25 -0.137,0 -0.249,0.112 -0.249,0.25 0,0.138 0.112,0.25 0.249,0.25 C -0.112,0.25 0,0.138 0,0"
             style="fill:#ffffff;fill-opacity:1;fill-rule:nonzero;stroke:none"
             id="path294" /></g><g
           id="g296"
           transform="translate(126.9272,208.3687)"><path
             d="m 0,0 c 0,-0.138 -0.112,-0.25 -0.25,-0.25 -0.138,0 -0.249,0.112 -0.249,0.25 0,0.138 0.111,0.25 0.249,0.25 C -0.112,0.25 0,0.138 0,0"
             style="fill:#ffffff;fill-opacity:1;fill-rule:nonzero;stroke:none"
             id="path298" /></g><g
           id="g300"
           transform="translate(94.7803,170.4321)"><path
             d="m 0,0 c 0,-0.138 -0.112,-0.25 -0.25,-0.25 -0.137,0 -0.249,0.112 -0.249,0.25 0,0.138 0.112,0.25 0.249,0.25 C -0.112,0.25 0,0.138 0,0"
             style="fill:#ffffff;fill-opacity:1;fill-rule:nonzero;stroke:none"
             id="path302" /></g><g
           id="g304"
           transform="translate(40.6597,190.165)"><path
             d="m 0,0 c 0,-0.138 -0.112,-0.25 -0.25,-0.25 -0.137,0 -0.249,0.112 -0.249,0.25 0,0.138 0.112,0.25 0.249,0.25 C -0.112,0.25 0,0.138 0,0"
             style="fill:#ffffff;fill-opacity:1;fill-rule:nonzero;stroke:none"
             id="path306" /></g><g
           id="g308"
           transform="translate(85.1284,267.4336)"><path
             d="m 0,0 c 0,-0.138 -0.111,-0.25 -0.25,-0.25 -0.137,0 -0.249,0.112 -0.249,0.25 0,0.138 0.112,0.25 0.249,0.25 C -0.111,0.25 0,0.138 0,0"
             style="fill:#ffffff;fill-opacity:1;fill-rule:nonzero;stroke:none"
             id="path310" /></g><g
           id="g312"
           transform="translate(110.7407,287.0767)"><path
             d="m 0,0 c 0,-0.138 -0.112,-0.25 -0.25,-0.25 -0.137,0 -0.249,0.112 -0.249,0.25 0,0.138 0.112,0.25 0.249,0.25 C -0.112,0.25 0,0.138 0,0"
             style="fill:#ffffff;fill-opacity:1;fill-rule:nonzero;stroke:none"
             id="path314" /></g><g
           id="g316"
           transform="translate(785.8545,251.7661)"><path
             d="m 0,0 c 0,-0.552 -0.448,-1 -1.001,-1 -0.553,0 -1,0.448 -1,1 0,0.552 0.447,1 1,1 C -0.448,1 0,0.552 0,0"
             style="fill:#ffffff;fill-opacity:1;fill-rule:nonzero;stroke:none"
             id="path318" /></g><g
           id="g320"
           transform="translate(728.0098,252.8501)"><path
             d="m 0,0 c 0,-0.552 -0.448,-1 -1.001,-1 -0.553,0 -1.001,0.448 -1.001,1 0,0.552 0.448,1 1.001,1 C -0.448,1 0,0.552 0,0"
             style="fill:#ffffff;fill-opacity:1;fill-rule:nonzero;stroke:none"
             id="path322" /></g><g
           id="g324"
           transform="translate(649.0059,249.7441)"><path
             d="m 0,0 c 0,-0.552 -0.448,-1 -1,-1 -0.553,0 -1.001,0.448 -1.001,1 0,0.552 0.448,1 1.001,1 0.552,0 1,-0.448 1,-1"
             style="fill:#ffffff;fill-opacity:1;fill-rule:nonzero;stroke:none"
             id="path326" /></g><g
           id="g328"
           transform="translate(546.1309,250.0654)"><path
             d="m 0,0 c 0,-0.552 -0.448,-1 -1.001,-1 -0.553,0 -1.001,0.448 -1.001,1 0,0.552 0.448,1 1.001,1 C -0.448,1 0,0.552 0,0"
             style="fill:#ffffff;fill-opacity:1;fill-rule:nonzero;stroke:none"
             id="path330" /></g><g
           id="g332"
           transform="translate(446.8428,247.9214)"><path
             d="m 0,0 c 0,-0.552 -0.448,-1 -1.001,-1 -0.552,0 -1,0.448 -1,1 0,0.552 0.448,1 1,1 C -0.448,1 0,0.552 0,0"
             style="fill:#ffffff;fill-opacity:1;fill-rule:nonzero;stroke:none"
             id="path334" /></g><g
           id="g336"
           transform="translate(361.9868,239.4854)"><path
             d="m 0,0 c 0,-0.553 -0.448,-1 -1,-1 -0.553,0 -1.001,0.447 -1.001,1 0,0.552 0.448,1 1.001,1 0.552,0 1,-0.448 1,-1"
             style="fill:#ffffff;fill-opacity:1;fill-rule:nonzero;stroke:none"
             id="path338" /></g><g
           id="g340"
           transform="translate(227.293,236.4316)"><path
             d="m 0,0 c 0,-0.552 -0.448,-1 -1,-1 -0.553,0 -1.001,0.448 -1.001,1 0,0.552 0.448,1 1.001,1 0.552,0 1,-0.448 1,-1"
             style="fill:#ffffff;fill-opacity:1;fill-rule:nonzero;stroke:none"
             id="path342" /></g><g
           id="g344"
           transform="translate(145.4116,217.8154)"><path
             d="m 0,0 c 0,-0.552 -0.448,-1 -1.001,-1 -0.553,0 -1,0.448 -1,1 0,0.552 0.447,1 1,1 C -0.448,1 0,0.552 0,0"
             style="fill:#ffffff;fill-opacity:1;fill-rule:nonzero;stroke:none"
             id="path346" /></g><g
           id="g348"
           transform="translate(66.3994,182.9365)"><path
             d="m 0,0 c 0,-0.552 -0.448,-1 -1.001,-1 -0.552,0 -1,0.448 -1,1 0,0.552 0.448,1 1,1 C -0.448,1 0,0.552 0,0"
             style="fill:#ffffff;fill-opacity:1;fill-rule:nonzero;stroke:none"
             id="path350" /></g><g
           id="g352"
           transform="translate(64.0825,138.499)"><path
             d="m 0,0 c 0,-0.553 -0.448,-1 -1.001,-1 -0.552,0 -1,0.447 -1,1 0,0.552 0.448,1 1,1 C -0.448,1 0,0.552 0,0"
             style="fill:#ffffff;fill-opacity:1;fill-rule:nonzero;stroke:none"
             id="path354" /></g><g
           id="g356"
           transform="translate(305.7632,162.1992)"><path
             d="m 0,0 c 0,-0.552 -0.448,-1 -1,-1 -0.553,0 -1.001,0.448 -1.001,1 0,0.552 0.448,1 1.001,1 0.552,0 1,-0.448 1,-1"
             style="fill:#ffffff;fill-opacity:1;fill-rule:nonzero;stroke:none"
             id="path358" /></g><g
           id="g360"
           transform="translate(448.0576,199.0225)"><path
             d="m 0,0 c 0,-0.552 -0.448,-1 -1.001,-1 -0.552,0 -1,0.448 -1,1 0,0.552 0.448,1 1,1 C -0.448,1 0,0.552 0,0"
             style="fill:#ffffff;fill-opacity:1;fill-rule:nonzero;stroke:none"
             id="path362" /></g><g
           id="g364"
           transform="translate(577.124,229.9575)"><path
             d="m 0,0 c 0,-0.552 -0.448,-1 -1.001,-1 -0.553,0 -1.001,0.448 -1.001,1 0,0.552 0.448,1 1.001,1 C -0.448,1 0,0.552 0,0"
             style="fill:#ffffff;fill-opacity:1;fill-rule:nonzero;stroke:none"
             id="path366" /></g><g
           id="g368"
           transform="translate(748.4824,209.1899)"><path
             d="m 0,0 c 0,-0.552 -0.448,-1 -1.001,-1 -0.553,0 -1.001,0.448 -1.001,1 0,0.552 0.448,1 1.001,1 C -0.448,1 0,0.552 0,0"
             style="fill:#ffffff;fill-opacity:1;fill-rule:nonzero;stroke:none"
             id="path370" /></g><g
           id="g372"
           transform="translate(769.8662,201.6011)"><path
             d="m 0,0 c 0,-0.552 -0.448,-1 -1.001,-1 -0.553,0 -1.001,0.448 -1.001,1 0,0.552 0.448,1 1.001,1 C -0.448,1 0,0.552 0,0"
             style="fill:#ffffff;fill-opacity:1;fill-rule:nonzero;stroke:none"
             id="path374" /></g><g
           id="g376"
           transform="translate(5.9365,277.79)"><path
             d="M 0,0 C 0,-0.276 -0.224,-0.5 -0.5,-0.5 -0.776,-0.5 -1,-0.276 -1,0 -1,0.276 -0.776,0.5 -0.5,0.5 -0.224,0.5 0,0.276 0,0"
             style="fill:#ffffff;fill-opacity:1;fill-rule:nonzero;stroke:none"
             id="path378" /></g><g
           id="g380"
           transform="translate(3.6802,280.7876)"><path
             d="M 0,0 C 0,-0.276 -0.224,-0.5 -0.5,-0.5 -0.776,-0.5 -1,-0.276 -1,0 -1,0.276 -0.776,0.5 -0.5,0.5 -0.224,0.5 0,0.276 0,0"
             style="fill:#ffffff;fill-opacity:1;fill-rule:nonzero;stroke:none"
             id="path382" /></g><g
           id="g384"
           transform="translate(81.7236,283.4463)"><path
             d="M 0,0 C 0,-0.276 -0.224,-0.5 -0.5,-0.5 -0.776,-0.5 -1,-0.276 -1,0 -1,0.276 -0.776,0.5 -0.5,0.5 -0.224,0.5 0,0.276 0,0"
             style="fill:#ffffff;fill-opacity:1;fill-rule:nonzero;stroke:none"
             id="path386" /></g><g
           id="g388"
           transform="translate(146.147,286.4346)"><path
             d="M 0,0 C 0,-0.276 -0.224,-0.5 -0.5,-0.5 -0.776,-0.5 -1,-0.276 -1,0 -1,0.276 -0.776,0.5 -0.5,0.5 -0.224,0.5 0,0.276 0,0"
             style="fill:#ffffff;fill-opacity:1;fill-rule:nonzero;stroke:none"
             id="path390" /></g><g
           id="g392"
           transform="translate(227.8389,286.4077)"><path
             d="M 0,0 C 0,-0.276 -0.224,-0.5 -0.5,-0.5 -0.776,-0.5 -1,-0.276 -1,0 -1,0.276 -0.776,0.5 -0.5,0.5 -0.224,0.5 0,0.276 0,0"
             style="fill:#ffffff;fill-opacity:1;fill-rule:nonzero;stroke:none"
             id="path394" /></g><g
           id="g396"
           transform="translate(314.6235,288.4727)"><path
             d="M 0,0 C 0,-0.276 -0.224,-0.5 -0.5,-0.5 -0.776,-0.5 -1,-0.276 -1,0 -1,0.276 -0.776,0.5 -0.5,0.5 -0.224,0.5 0,0.276 0,0"
             style="fill:#ffffff;fill-opacity:1;fill-rule:nonzero;stroke:none"
             id="path398" /></g><g
           id="g400"
           transform="translate(393.2632,289.5664)"><path
             d="M 0,0 C 0,-0.276 -0.224,-0.5 -0.5,-0.5 -0.776,-0.5 -1,-0.276 -1,0 -1,0.276 -0.776,0.5 -0.5,0.5 -0.224,0.5 0,0.276 0,0"
             style="fill:#ffffff;fill-opacity:1;fill-rule:nonzero;stroke:none"
             id="path402" /></g><g
           id="g404"
           transform="translate(456.6689,289.6382)"><path
             d="M 0,0 C 0,-0.276 -0.224,-0.5 -0.5,-0.5 -0.776,-0.5 -1,-0.276 -1,0 -1,0.276 -0.776,0.5 -0.5,0.5 -0.224,0.5 0,0.276 0,0"
             style="fill:#ffffff;fill-opacity:1;fill-rule:nonzero;stroke:none"
             id="path406" /></g><g
           id="g408"
           transform="translate(494.7256,289.645)"><path
             d="M 0,0 C 0,-0.276 -0.224,-0.5 -0.5,-0.5 -0.776,-0.5 -1,-0.276 -1,0 -1,0.276 -0.776,0.5 -0.5,0.5 -0.224,0.5 0,0.276 0,0"
             style="fill:#ffffff;fill-opacity:1;fill-rule:nonzero;stroke:none"
             id="path410" /></g><g
           id="g412"
           transform="translate(595.8574,289.5483)"><path
             d="M 0,0 C 0,-0.276 -0.224,-0.5 -0.5,-0.5 -0.776,-0.5 -1,-0.276 -1,0 -1,0.276 -0.776,0.5 -0.5,0.5 -0.224,0.5 0,0.276 0,0"
             style="fill:#ffffff;fill-opacity:1;fill-rule:nonzero;stroke:none"
             id="path414" /></g><g
           id="g416"
           transform="translate(691.8896,280.3911)"><path
             d="M 0,0 C 0,-0.276 -0.225,-0.5 -0.5,-0.5 -0.776,-0.5 -1,-0.276 -1,0 -1,0.276 -0.776,0.5 -0.5,0.5 -0.225,0.5 0,0.276 0,0"
             style="fill:#ffffff;fill-opacity:1;fill-rule:nonzero;stroke:none"
             id="path418" /></g><g
           id="g420"
           transform="translate(790.2705,260.8999)"><path
             d="M 0,0 C 0,-0.276 -0.224,-0.5 -0.5,-0.5 -0.776,-0.5 -1,-0.276 -1,0 -1,0.276 -0.776,0.5 -0.5,0.5 -0.224,0.5 0,0.276 0,0"
             style="fill:#ffffff;fill-opacity:1;fill-rule:nonzero;stroke:none"
             id="path422" /></g><g
           id="g424"
           transform="translate(770.5684,244.313)"><path
             d="M 0,0 C 0,-0.276 -0.225,-0.5 -0.5,-0.5 -0.776,-0.5 -1,-0.276 -1,0 -1,0.276 -0.776,0.5 -0.5,0.5 -0.225,0.5 0,0.276 0,0"
             style="fill:#ffffff;fill-opacity:1;fill-rule:nonzero;stroke:none"
             id="path426" /></g><g
           id="g428"
           transform="translate(691.3086,230.2529)"><path
             d="M 0,0 C 0,-0.276 -0.224,-0.5 -0.5,-0.5 -0.776,-0.5 -1,-0.276 -1,0 -1,0.276 -0.776,0.5 -0.5,0.5 -0.224,0.5 0,0.276 0,0"
             style="fill:#ffffff;fill-opacity:1;fill-rule:nonzero;stroke:none"
             id="path430" /></g><g
           id="g432"
           transform="translate(591.8408,222.7397)"><path
             d="M 0,0 C 0,-0.276 -0.224,-0.5 -0.5,-0.5 -0.776,-0.5 -1,-0.276 -1,0 -1,0.276 -0.776,0.5 -0.5,0.5 -0.224,0.5 0,0.276 0,0"
             style="fill:#ffffff;fill-opacity:1;fill-rule:nonzero;stroke:none"
             id="path434" /></g><g
           id="g436"
           transform="translate(490.6621,220.8335)"><path
             d="M 0,0 C 0,-0.276 -0.224,-0.5 -0.5,-0.5 -0.775,-0.5 -1,-0.276 -1,0 -1,0.276 -0.775,0.5 -0.5,0.5 -0.224,0.5 0,0.276 0,0"
             style="fill:#ffffff;fill-opacity:1;fill-rule:nonzero;stroke:none"
             id="path438" /></g><g
           id="g440"
           transform="translate(454.9404,200.3208)"><path
             d="M 0,0 C 0,-0.276 -0.224,-0.5 -0.5,-0.5 -0.775,-0.5 -1,-0.276 -1,0 -1,0.276 -0.775,0.5 -0.5,0.5 -0.224,0.5 0,0.276 0,0"
             style="fill:#ffffff;fill-opacity:1;fill-rule:nonzero;stroke:none"
             id="path442" /></g><g
           id="g444"
           transform="translate(446.5889,163.3853)"><path
             d="M 0,0 C 0,-0.276 -0.224,-0.5 -0.5,-0.5 -0.775,-0.5 -1,-0.276 -1,0 -1,0.276 -0.775,0.5 -0.5,0.5 -0.224,0.5 0,0.276 0,0"
             style="fill:#ffffff;fill-opacity:1;fill-rule:nonzero;stroke:none"
             id="path446" /></g><g
           id="g448"
           transform="translate(445.6299,139.5586)"><path
             d="M 0,0 C 0,-0.276 -0.224,-0.5 -0.5,-0.5 -0.776,-0.5 -1,-0.276 -1,0 -1,0.275 -0.776,0.5 -0.5,0.5 -0.224,0.5 0,0.275 0,0"
             style="fill:#ffffff;fill-opacity:1;fill-rule:nonzero;stroke:none"
             id="path450" /></g><g
           id="g452"
           transform="translate(405.6685,108.0078)"><path
             d="M 0,0 C 0,-0.275 -0.224,-0.5 -0.5,-0.5 -0.776,-0.5 -1,-0.275 -1,0 -1,0.276 -0.776,0.5 -0.5,0.5 -0.224,0.5 0,0.276 0,0"
             style="fill:#ffffff;fill-opacity:1;fill-rule:nonzero;stroke:none"
             id="path454" /></g><g
           id="g456"
           transform="translate(350.4673,92.6836)"><path
             d="M 0,0 C 0,-0.275 -0.224,-0.5 -0.5,-0.5 -0.776,-0.5 -1,-0.275 -1,0 -1,0.276 -0.776,0.5 -0.5,0.5 -0.224,0.5 0,0.276 0,0"
             style="fill:#ffffff;fill-opacity:1;fill-rule:nonzero;stroke:none"
             id="path458" /></g><g
           id="g460"
           transform="translate(264.5093,128.6973)"><path
             d="M 0,0 C 0,-0.276 -0.224,-0.5 -0.5,-0.5 -0.776,-0.5 -1,-0.276 -1,0 -1,0.276 -0.776,0.5 -0.5,0.5 -0.224,0.5 0,0.276 0,0"
             style="fill:#ffffff;fill-opacity:1;fill-rule:nonzero;stroke:none"
             id="path462" /></g><g
           id="g464"
           transform="translate(170.6172,171.6777)"><path
             d="M 0,0 C 0,-0.276 -0.224,-0.5 -0.5,-0.5 -0.776,-0.5 -1,-0.276 -1,0 -1,0.276 -0.776,0.5 -0.5,0.5 -0.224,0.5 0,0.276 0,0"
             style="fill:#ffffff;fill-opacity:1;fill-rule:nonzero;stroke:none"
             id="path466" /></g><g
           id="g468"
           transform="translate(71.6162,227.9604)"><path
             d="M 0,0 C 0,-0.276 -0.224,-0.5 -0.5,-0.5 -0.776,-0.5 -1,-0.276 -1,0 -1,0.276 -0.776,0.5 -0.5,0.5 -0.224,0.5 0,0.276 0,0"
             style="fill:#ffffff;fill-opacity:1;fill-rule:nonzero;stroke:none"
             id="path470" /></g><g
           id="g472"
           transform="translate(38.5923,225.9492)"><path
             d="M 0,0 C 0,-0.276 -0.224,-0.5 -0.5,-0.5 -0.776,-0.5 -1,-0.276 -1,0 -1,0.276 -0.776,0.5 -0.5,0.5 -0.224,0.5 0,0.276 0,0"
             style="fill:#ffffff;fill-opacity:1;fill-rule:nonzero;stroke:none"
             id="path474" /></g><g
           id="g476"
           transform="translate(23.165,193.0215)"><path
             d="M 0,0 C 0,-0.276 -0.224,-0.5 -0.5,-0.5 -0.776,-0.5 -1,-0.276 -1,0 -1,0.276 -0.776,0.5 -0.5,0.5 -0.224,0.5 0,0.276 0,0"
             style="fill:#ffffff;fill-opacity:1;fill-rule:nonzero;stroke:none"
             id="path478" /></g><g
           id="g480"
           transform="translate(42.7388,145.9463)"><path
             d="M 0,0 C 0,-0.276 -0.224,-0.5 -0.5,-0.5 -0.776,-0.5 -1,-0.276 -1,0 -1,0.276 -0.776,0.5 -0.5,0.5 -0.224,0.5 0,0.276 0,0"
             style="fill:#ffffff;fill-opacity:1;fill-rule:nonzero;stroke:none"
             id="path482" /></g><g
           id="g484"
           transform="translate(75.4956,86.6465)"><path
             d="M 0,0 C 0,-0.276 -0.224,-0.5 -0.5,-0.5 -0.776,-0.5 -1,-0.276 -1,0 -1,0.276 -0.776,0.5 -0.5,0.5 -0.224,0.5 0,0.276 0,0"
             style="fill:#ffffff;fill-opacity:1;fill-rule:nonzero;stroke:none"
             id="path486" /></g><g
           id="g488"
           transform="translate(166.5088,62.127)"><path
             d="M 0,0 C 0,-0.276 -0.224,-0.5 -0.5,-0.5 -0.776,-0.5 -1,-0.276 -1,0 -1,0.276 -0.776,0.5 -0.5,0.5 -0.224,0.5 0,0.276 0,0"
             style="fill:#ffffff;fill-opacity:1;fill-rule:nonzero;stroke:none"
             id="path490" /></g><g
           id="g492"
           transform="translate(318.6758,116.4131)"><path
             d="M 0,0 C 0,-0.276 -0.224,-0.5 -0.5,-0.5 -0.776,-0.5 -1,-0.276 -1,0 -1,0.275 -0.776,0.5 -0.5,0.5 -0.224,0.5 0,0.275 0,0"
             style="fill:#ffffff;fill-opacity:1;fill-rule:nonzero;stroke:none"
             id="path494" /></g><g
           id="g496"
           transform="translate(437.9893,204.5879)"><path
             d="M 0,0 C 0,-0.276 -0.224,-0.5 -0.5,-0.5 -0.776,-0.5 -1,-0.276 -1,0 -1,0.276 -0.776,0.5 -0.5,0.5 -0.224,0.5 0,0.276 0,0"
             style="fill:#ffffff;fill-opacity:1;fill-rule:nonzero;stroke:none"
             id="path498" /></g><g
           id="g500"
           transform="translate(533.6387,230.0073)"><path
             d="M 0,0 C 0,-0.276 -0.224,-0.5 -0.5,-0.5 -0.775,-0.5 -1,-0.276 -1,0 -1,0.276 -0.775,0.5 -0.5,0.5 -0.224,0.5 0,0.276 0,0"
             style="fill:#ffffff;fill-opacity:1;fill-rule:nonzero;stroke:none"
             id="path502" /></g><g
           id="g504"
           transform="translate(694.4932,233.5942)"><path
             d="M 0,0 C 0,-0.276 -0.224,-0.5 -0.5,-0.5 -0.775,-0.5 -1,-0.276 -1,0 -1,0.276 -0.775,0.5 -0.5,0.5 -0.224,0.5 0,0.276 0,0"
             style="fill:#ffffff;fill-opacity:1;fill-rule:nonzero;stroke:none"
             id="path506" /></g><g
           id="g508"
           transform="translate(780.9404,209.271)"><path
             d="M 0,0 C 0,-0.276 -0.224,-0.5 -0.5,-0.5 -0.775,-0.5 -1,-0.276 -1,0 -1,0.276 -0.775,0.5 -0.5,0.5 -0.224,0.5 0,0.276 0,0"
             style="fill:#ffffff;fill-opacity:1;fill-rule:nonzero;stroke:none"
             id="path510" /></g></g></g><g
       id="g512"
       inkscape:groupmode="layer"
       style="display:inline"
       inkscape:label="planet"><g
         id="g514"
         clip-path="url(#clipPath518)"><g
           id="g520"
           transform="translate(526.9294,186.2025)"><path
             d="m 0,0 c 0,45.969 37.265,83.234 83.234,83.234 45.969,0 83.234,-37.265 83.234,-83.234 0,-45.969 -37.265,-83.234 -83.234,-83.234 C 37.265,-83.234 0,-45.969 0,0"
             style="fill:#eff0e4;fill-opacity:1;fill-rule:nonzero;stroke:none"
             id="path522" /></g><g
           id="g524"
           transform="translate(663.3294,250.2467)"><path
             d="m 0,0 c 5.683,-4.795 14.469,-13.438 21.233,-26.686 0,0 5.705,-11.174 7.899,-23.188 4.129,-22.612 -2.763,-60.3 -32.229,-81.911 -30.361,-22.267 -74.897,-20.283 -106.385,6.451 36.4,-9.464 74.826,3.285 97.422,32.226 C 8.384,-66.924 12.933,-31.25 0,0"
             style="fill:#b0a998;fill-opacity:1;fill-rule:nonzero;stroke:none"
             id="path526" /></g><g
           id="g528"
           transform="translate(568.2912,230.7557)"><path
             d="m 0,0 c 0,7.614 6.173,13.787 13.787,13.787 7.615,0 13.787,-6.173 13.787,-13.787 0,-7.614 -6.172,-13.787 -13.787,-13.787 C 6.173,-13.787 0,-7.614 0,0"
             style="fill:#b0a998;fill-opacity:1;fill-rule:nonzero;stroke:none"
             id="path530" /></g><g
           id="g532"
           transform="translate(542.7593,195.0111)"><path
             d="m 0,0 c 0,9.307 7.544,16.851 16.851,16.851 9.307,0 16.851,-7.544 16.851,-16.851 0,-9.307 -7.544,-16.851 -16.851,-16.851 C 7.544,-16.851 0,-9.307 0,0"
             style="fill:#b0a998;fill-opacity:1;fill-rule:nonzero;stroke:none"
             id="path534" /></g><g
           id="g536"
           transform="translate(595.8657,190.4153)"><path
             d="m 0,0 c 0,6.768 5.487,12.255 12.255,12.255 6.769,0 12.256,-5.487 12.256,-12.255 0,-6.768 -5.487,-12.255 -12.256,-12.255 C 5.487,-12.255 0,-6.768 0,0"
             style="fill:#b0a998;fill-opacity:1;fill-rule:nonzero;stroke:none"
             id="path538" /></g><g
           id="g540"
           transform="translate(576.4614,144.4579)"><path
             d="m 0,0 c 0,5.358 4.344,9.702 9.702,9.702 5.358,0 9.702,-4.344 9.702,-9.702 0,-5.358 -4.344,-9.702 -9.702,-9.702 C 4.344,-9.702 0,-5.358 0,0"
             style="fill:#b0a998;fill-opacity:1;fill-rule:nonzero;stroke:none"
             id="path542" /></g><g
           id="g544"
           transform="translate(618.0784,239.0536)"><path
             d="m 0,0 c 0,4.583 3.715,8.298 8.298,8.298 4.583,0 8.298,-3.715 8.298,-8.298 0,-4.583 -3.715,-8.298 -8.298,-8.298 C 3.715,-8.298 0,-4.583 0,0"
             style="fill:#b0a998;fill-opacity:1;fill-rule:nonzero;stroke:none"
             id="path546" /></g><g
           id="g548"
           transform="translate(644.3763,190.4153)"><path
             d="m 0,0 c 0,7.05 5.716,12.766 12.766,12.766 7.05,0 12.766,-5.716 12.766,-12.766 0,-7.05 -5.716,-12.766 -12.766,-12.766 C 5.716,-12.766 0,-7.05 0,0"
             style="fill:#b0a998;fill-opacity:1;fill-rule:nonzero;stroke:none"
             id="path550" /></g><g
           id="g552"
           transform="translate(644.3763,190.4153)"><path
             d="m 0,0 c 0,7.05 5.716,12.766 12.766,12.766 7.05,0 12.766,-5.716 12.766,-12.766 0,-7.05 -5.716,-12.766 -12.766,-12.766 C 5.716,-12.766 0,-7.05 0,0 Z"
             style="fill:none;stroke:#f0f0e4;stroke-width:3;stroke-linecap:butt;stroke-linejoin:miter;stroke-miterlimit:10;stroke-dasharray:none;stroke-opacity:1"
             id="path554" /></g></g></g><g
       inkscape:groupmode="layer"
       id="layer1"
       inkscape:label="earth"
       style="display:inline"><g
         id="g556"
         inkscape:groupmode="layer"
         style="display:inline"
         inkscape:label="glow"><g
           id="g558"
           clip-path="url(#clipPath562)"><g
             id="g564"><g
               id="g566" /><g
               id="g578"><g
                 clip-path="url(#clipPath570)"
                 opacity="0.0500031"
                 id="g576"><g
                   transform="translate(510.8907,239.0536)"
                   id="g574"><path
                     d="m 0,0 c 0,-129.341 -104.852,-234.193 -234.193,-234.193 -129.341,0 -234.193,104.852 -234.193,234.193 0,129.341 104.852,234.193 234.193,234.193 C -104.852,234.193 0,129.341 0,0"
                     style="fill:#28aae1;fill-opacity:1;fill-rule:nonzero;stroke:none"
                     id="path572" /></g></g></g></g><g
             id="g580"><g
               id="g582" /><g
               id="g594"><g
                 clip-path="url(#clipPath586)"
                 opacity="0.0500031"
                 id="g592"><g
                   transform="translate(485.3851,239.0536)"
                   id="g590"><path
                     d="m 0,0 c 0,-115.255 -93.433,-208.688 -208.688,-208.688 -115.255,0 -208.687,93.433 -208.687,208.688 0,115.255 93.432,208.688 208.687,208.688 C -93.433,208.688 0,115.255 0,0"
                     style="fill:#28aae1;fill-opacity:1;fill-rule:nonzero;stroke:none"
                     id="path588" /></g></g></g></g><g
             id="g596"><g
               id="g598" /><g
               id="g610"><g
                 clip-path="url(#clipPath602)"
                 opacity="0.0500031"
                 id="g608"><g
                   transform="translate(459.4456,235.1406)"
                   id="g606"><path
                     d="m 0,0 c 0,-98.768 -80.067,-178.835 -178.835,-178.835 -98.768,0 -178.835,80.067 -178.835,178.835 0,98.768 80.067,178.835 178.835,178.835 C -80.067,178.835 0,98.768 0,0"
                     style="fill:#28aae1;fill-opacity:1;fill-rule:nonzero;stroke:none"
                     id="path604" /></g></g></g></g></g></g><g
         id="g612"
         inkscape:groupmode="layer"
         style="display:inline"
         inkscape:label="earth"><g
           id="g614"
           clip-path="url(#clipPath618)"><g
             id="g620"
             transform="translate(427.8146,239.0536)"><path
               d="m 0,0 c 0,-83.46 -67.657,-151.117 -151.117,-151.117 -83.46,0 -151.117,67.657 -151.117,151.117 0,83.46 67.657,151.117 151.117,151.117 C -67.657,151.117 0,83.46 0,0"
               style="fill:#274397;fill-opacity:1;fill-rule:nonzero;stroke:none"
               id="path622" /></g><g
             id="g624"
             transform="translate(497.6548,257.6957)"><path
               d="m 0,0 c 0,-42.186 -54.747,-76.384 -122.281,-76.384 -67.535,0 -122.282,34.198 -122.282,76.384 0,42.186 54.747,76.384 122.282,76.384 C -54.747,76.384 0,42.186 0,0"
               style="fill:#04af87;fill-opacity:1;fill-rule:nonzero;stroke:none"
               id="path626" /></g><g
             id="g628"
             transform="translate(443.382,164.4323)"><path
               d="m 0,0 c 0,-18.854 -24.468,-34.137 -54.65,-34.137 -30.182,0 -54.649,15.283 -54.649,34.137 0,18.854 24.467,34.137 54.649,34.137 C -24.468,34.137 0,18.854 0,0"
               style="fill:#04af87;fill-opacity:1;fill-rule:nonzero;stroke:none"
               id="path630" /></g><g
             id="g632"
             transform="translate(271.6482,176.1793)"><path
               d="m 0,0 c 0,-33.726 -36.366,-61.067 -81.226,-61.067 -44.859,0 -81.225,27.341 -81.225,61.067 0,33.726 36.366,61.067 81.225,61.067 C -36.366,61.067 0,33.726 0,0"
               style="fill:#b3998a;fill-opacity:1;fill-rule:nonzero;stroke:none"
               id="path634" /></g><g
             id="g636"
             transform="translate(235.4244,275.3633)"><path
               d="M 0,0 C -0.65,0 -1.291,-0.038 -1.923,-0.106 H -80.092 C -80.724,-0.038 -81.365,0 -82.015,0 c -9.758,0 -17.668,-7.886 -17.668,-17.615 0,-9.728 7.91,-17.614 17.668,-17.614 v -0.106 h 81.197 v 0.126 c 0.271,-0.012 0.544,-0.02 0.818,-0.02 9.758,0 17.668,7.886 17.668,17.614 C 17.668,-7.886 9.758,0 0,0"
               style="fill:#ffffff;fill-opacity:1;fill-rule:nonzero;stroke:none"
               id="path638" /></g><g
             id="g640"
             transform="translate(291.2391,215.8941)"><path
               d="M 0,0 C -0.435,0 -0.864,-0.025 -1.286,-0.071 H -53.567 C -53.989,-0.025 -54.418,0 -54.853,0 c -6.526,0 -11.816,-5.275 -11.816,-11.781 0,-6.506 5.29,-11.781 11.816,-11.781 v -0.071 h 54.306 v 0.085 c 0.181,-0.008 0.364,-0.014 0.547,-0.014 6.526,0 11.816,5.275 11.816,11.781 C 11.816,-5.275 6.526,0 0,0"
               style="fill:#ffffff;fill-opacity:1;fill-rule:nonzero;stroke:none"
               id="path642" /></g><g
             id="g644"
             transform="translate(246.145,137.2686)"><path
               d="M 0,0 C -0.65,0 -1.291,-0.038 -1.923,-0.106 H -80.092 C -80.724,-0.038 -81.365,0 -82.015,0 c -9.758,0 -17.668,-7.886 -17.668,-17.615 0,-9.728 7.91,-17.614 17.668,-17.614 v -0.106 h 81.197 v 0.126 c 0.271,-0.012 0.544,-0.02 0.818,-0.02 9.758,0 17.668,7.886 17.668,17.614 C 17.668,-7.886 9.758,0 0,0"
               style="fill:#ffffff;fill-opacity:1;fill-rule:nonzero;stroke:none"
               id="path646" /></g></g></g><g
         id="g648"
         inkscape:groupmode="layer"
         style="display:inline"
         inkscape:label="overlayedClouds"><g
           id="g650"
           clip-path="url(#clipPath654)"><g
             id="g656"
             transform="translate(425.7144,280.7325)"><path
               d="m 0,0 c -0.65,0 -1.291,-0.053 -1.923,-0.15 h -78.169 c -0.632,0.097 -1.273,0.15 -1.923,0.15 -9.758,0 -17.668,-11.154 -17.668,-24.914 0,-13.759 7.91,-24.913 17.668,-24.913 v -0.15 h 81.197 v 0.179 c 0.271,-0.017 0.544,-0.029 0.818,-0.029 9.758,0 17.668,11.154 17.668,24.913 C 17.668,-11.154 9.758,0 0,0"
               style="fill:#ffffff;fill-opacity:1;fill-rule:nonzero;stroke:none"
               id="path658" /></g><g
             id="g660"
             transform="translate(396.9973,176.1793)"><path
               d="M 0,0 C -0.65,0 -1.291,-0.038 -1.923,-0.106 H -80.092 C -80.724,-0.038 -81.365,0 -82.015,0 c -9.758,0 -17.668,-7.886 -17.668,-17.615 0,-9.728 7.91,-17.614 17.668,-17.614 v -0.106 h 81.197 v 0.126 c 0.271,-0.012 0.544,-0.02 0.818,-0.02 9.758,0 17.668,7.886 17.668,17.614 C 17.668,-7.886 9.758,0 0,0"
               style="fill:#ffffff;fill-opacity:1;fill-rule:nonzero;stroke:none"
               id="path662" /></g></g></g></g><g
       id="g664"
       inkscape:groupmode="layer"
       style="display:inline"
       inkscape:label="land"><g
         id="g666"
         clip-path="url(#clipPath670)"><g
           id="g672"
           transform="translate(814.3257,180.2278)"><path
             d="m 0,0 c -18.423,-1.362 -36.846,-2.723 -55.269,-4.085 -50.623,-22.032 -91.051,-33.57 -117.446,-39.83 -23.587,-5.593 -44.936,-9.191 -44.937,-9.191 -35.704,-6.018 -47.253,-4.937 -69.446,-9.192 -16.309,-3.127 -39.76,-9.402 -67.405,-23.489 -38.808,-8.851 -77.617,-17.702 -116.425,-26.553 -37.532,-24.081 -75.064,-48.162 -112.596,-72.242 H 0 Z"
             style="fill:#84746f;fill-opacity:1;fill-rule:nonzero;stroke:none"
             id="path674" /></g><g
           id="g676"
           transform="translate(814.3257,161.8448)"><path
             d="m 0,0 c -32.183,-3.449 -56.37,-10.859 -72.948,-17.284 -16.264,-6.302 -30.036,-13.584 -56.17,-20.425 -13.879,-3.633 -17.356,-3.519 -30.638,-7.149 -28.277,-7.728 -48.02,-17.949 -53.107,-20.426 -22.231,-10.822 -96.574,-35.352 -288,-88.851 H 0 Z"
             style="fill:#9c8980;fill-opacity:1;fill-rule:nonzero;stroke:none"
             id="path678" /></g><path
           d="m 177.929,30.366 h -17.59 v 37.605 h 17.59 z"
           style="fill:#8f7b75;fill-opacity:1;fill-rule:nonzero;stroke:none"
           id="path680" /><path
           d="m 142.75,30.366 h 17.59 v 37.605 h -17.59 z"
           style="fill:#77655e;fill-opacity:1;fill-rule:nonzero;stroke:none"
           id="path682" /><g
           id="g684"
           transform="translate(227.026,62.6273)"><path
             d="M 0,0 C -22.229,56.043 -44.458,112.086 -66.687,168.128 V 0 Z"
             style="fill:#4ca069;fill-opacity:1;fill-rule:nonzero;stroke:none"
             id="path686" /></g><g
           id="g688"
           transform="translate(93.6529,62.6273)"><path
             d="M 0,0 C 22.229,56.043 44.458,112.086 66.687,168.128 V 0 Z"
             style="fill:#30824e;fill-opacity:1;fill-rule:nonzero;stroke:none"
             id="path690" /></g><path
           d="m 102.448,20.906 h -17.59 v 37.605 h 17.59 z"
           style="fill:#8f7b75;fill-opacity:1;fill-rule:nonzero;stroke:none"
           id="path692" /><path
           d="m 67.268,20.906 h 17.59 v 37.605 h -17.59 z"
           style="fill:#77655e;fill-opacity:1;fill-rule:nonzero;stroke:none"
           id="path694" /><g
           id="g696"
           transform="translate(151.5445,53.1669)"><path
             d="M 0,0 C -22.229,56.043 -44.458,112.086 -66.687,168.128 V 0 Z"
             style="fill:#4ca069;fill-opacity:1;fill-rule:nonzero;stroke:none"
             id="path698" /></g><g
           id="g700"
           transform="translate(18.1714,53.1669)"><path
             d="M 0,0 C 22.229,56.043 44.458,112.086 66.687,168.128 V 0 Z"
             style="fill:#30824e;fill-opacity:1;fill-rule:nonzero;stroke:none"
             id="path702" /></g><g
           id="g704"
           transform="translate(810.7087,-0.5501)"><path
             d="m 0,0 v 20.923 c -81.247,8.354 -166.309,14.704 -254.928,18.383 -201.405,8.361 -387.673,1.532 -555.781,-13.787 V 0 Z"
             style="fill:#b3998a;fill-opacity:1;fill-rule:nonzero;stroke:none"
             id="path706" /></g></g></g></g></svg>
